<svg width="18" height="19" viewBox="0 0 18 19" fill="none" xmlns="http://www.w3.org/2000/svg">
<g id="vuesax/outline/calendar-2">
<g id="calendar-2">
<path id="Vector" d="M6 4.6875C5.6925 4.6875 5.4375 4.4325 5.4375 4.125V1.875C5.4375 1.5675 5.6925 1.3125 6 1.3125C6.3075 1.3125 6.5625 1.5675 6.5625 1.875V4.125C6.5625 4.4325 6.3075 4.6875 6 4.6875Z" fill="white"/>
<path id="Vector_2" d="M12 4.6875C11.6925 4.6875 11.4375 4.4325 11.4375 4.125V1.875C11.4375 1.5675 11.6925 1.3125 12 1.3125C12.3075 1.3125 12.5625 1.5675 12.5625 1.875V4.125C12.5625 4.4325 12.3075 4.6875 12 4.6875Z" fill="white"/>
<path id="Vector_3" d="M15.375 7.75497H2.625C2.3175 7.75497 2.0625 7.49997 2.0625 7.19247C2.0625 6.88497 2.3175 6.62997 2.625 6.62997H15.375C15.6825 6.62997 15.9375 6.88497 15.9375 7.19247C15.9375 7.49997 15.6825 7.75497 15.375 7.75497Z" fill="white"/>
<path id="Vector_4" d="M12 17.4375H6C3.2625 17.4375 1.6875 15.8625 1.6875 13.125V6.75C1.6875 4.0125 3.2625 2.4375 6 2.4375H12C14.7375 2.4375 16.3125 4.0125 16.3125 6.75V13.125C16.3125 15.8625 14.7375 17.4375 12 17.4375ZM6 3.5625C3.855 3.5625 2.8125 4.605 2.8125 6.75V13.125C2.8125 15.27 3.855 16.3125 6 16.3125H12C14.145 16.3125 15.1875 15.27 15.1875 13.125V6.75C15.1875 4.605 14.145 3.5625 12 3.5625H6Z" fill="white"/>
<path id="Vector_5" d="M6.375 11.25C6.2775 11.25 6.18 11.2275 6.09 11.19C6 11.1525 5.91751 11.1 5.84251 11.0325C5.77501 10.9575 5.72249 10.875 5.68499 10.785C5.64749 10.695 5.625 10.5975 5.625 10.5C5.625 10.305 5.70751 10.11 5.84251 9.96752C5.91751 9.90002 6 9.8475 6.09 9.81C6.225 9.75 6.37501 9.735 6.52501 9.765C6.57001 9.7725 6.615 9.7875 6.66 9.81C6.705 9.825 6.75 9.84752 6.795 9.87752C6.8325 9.90752 6.86999 9.93752 6.90749 9.96752C6.93749 10.005 6.97499 10.0425 6.99749 10.08C7.02749 10.125 7.05001 10.17 7.06501 10.215C7.08751 10.26 7.10251 10.305 7.11001 10.35C7.11751 10.4025 7.125 10.4475 7.125 10.5C7.125 10.695 7.04249 10.89 6.90749 11.0325C6.76499 11.1675 6.57 11.25 6.375 11.25Z" fill="white"/>
<path id="Vector_6" d="M9 11.25C8.805 11.25 8.61001 11.1675 8.46751 11.0325C8.43751 10.995 8.40751 10.9575 8.37751 10.92C8.34751 10.875 8.32499 10.83 8.30999 10.785C8.28749 10.74 8.27249 10.695 8.26499 10.65C8.25749 10.5975 8.25 10.5525 8.25 10.5C8.25 10.4025 8.27249 10.305 8.30999 10.215C8.34749 10.125 8.40001 10.0425 8.46751 9.9675C8.67751 9.7575 9.015 9.68999 9.285 9.80999C9.3825 9.84749 9.45749 9.9 9.53249 9.9675C9.66749 10.11 9.75 10.305 9.75 10.5C9.75 10.5525 9.74251 10.5975 9.73501 10.65C9.72751 10.695 9.71251 10.74 9.69001 10.785C9.67501 10.83 9.65249 10.875 9.62249 10.92C9.59249 10.9575 9.56249 10.995 9.53249 11.0325C9.45749 11.1 9.3825 11.1525 9.285 11.19C9.195 11.2275 9.0975 11.25 9 11.25Z" fill="white"/>
<path id="Vector_7" d="M6.375 13.875C6.2775 13.875 6.18 13.8525 6.09 13.815C6 13.7775 5.91751 13.725 5.84251 13.6575C5.77501 13.5825 5.72249 13.5075 5.68499 13.41C5.64749 13.32 5.625 13.2225 5.625 13.125C5.625 12.93 5.70751 12.735 5.84251 12.5925C5.91751 12.525 6 12.4725 6.09 12.435C6.3675 12.315 6.69749 12.3825 6.90749 12.5925C6.93749 12.63 6.97499 12.6675 6.99749 12.705C7.02749 12.75 7.05001 12.795 7.06501 12.84C7.08751 12.885 7.10251 12.93 7.11001 12.9825C7.11751 13.0275 7.125 13.08 7.125 13.125C7.125 13.32 7.04249 13.515 6.90749 13.6575C6.76499 13.7925 6.57 13.875 6.375 13.875Z" fill="white"/>
</g>
</g>
</svg>
