<svg width="19" height="19" viewBox="0 0 19 19" fill="none" xmlns="http://www.w3.org/2000/svg">
<g id="vuesax/outline/tick-circle">
<g id="tick-circle">
<path id="Vector" d="M9.5 17.1875C5.0525 17.1875 1.4375 13.5725 1.4375 9.125C1.4375 4.6775 5.0525 1.0625 9.5 1.0625C13.9475 1.0625 17.5625 4.6775 17.5625 9.125C17.5625 13.5725 13.9475 17.1875 9.5 17.1875ZM9.5 2.1875C5.675 2.1875 2.5625 5.3 2.5625 9.125C2.5625 12.95 5.675 16.0625 9.5 16.0625C13.325 16.0625 16.4375 12.95 16.4375 9.125C16.4375 5.3 13.325 2.1875 9.5 2.1875Z" fill="white"/>
<path id="Vector_2" d="M8.435 11.81C8.285 11.81 8.1425 11.75 8.0375 11.645L5.915 9.5225C5.6975 9.305 5.6975 8.945 5.915 8.7275C6.1325 8.51 6.4925 8.51 6.71 8.7275L8.435 10.4525L12.29 6.5975C12.5075 6.38 12.8675 6.38 13.085 6.5975C13.3025 6.815 13.3025 7.175 13.085 7.3925L8.8325 11.645C8.7275 11.75 8.585 11.81 8.435 11.81Z" fill="white"/>
</g>
</g>
</svg>
