<svg width="18" height="19" viewBox="0 0 18 19" fill="none" xmlns="http://www.w3.org/2000/svg">
<g id="vuesax/outline/timer-start">
<g id="timer-start">
<path id="Vector" d="M9 10.6875C8.6925 10.6875 8.4375 10.4325 8.4375 10.125V6.375C8.4375 6.0675 8.6925 5.8125 9 5.8125C9.3075 5.8125 9.5625 6.0675 9.5625 6.375V10.125C9.5625 10.4325 9.3075 10.6875 9 10.6875Z" fill="white"/>
<path id="Vector_2" d="M9 17.4375C5.07 17.4375 1.875 14.2425 1.875 10.3125C1.875 6.3825 5.07 3.1875 9 3.1875C12.93 3.1875 16.125 6.3825 16.125 10.3125C16.125 10.62 15.87 10.875 15.5625 10.875C15.255 10.875 15 10.62 15 10.3125C15 7.005 12.3075 4.3125 9 4.3125C5.6925 4.3125 3 7.005 3 10.3125C3 13.62 5.6925 16.3125 9 16.3125C9.3075 16.3125 9.5625 16.5675 9.5625 16.875C9.5625 17.1825 9.3075 17.4375 9 17.4375Z" fill="white"/>
<path id="Vector_3" d="M11.25 2.4375H6.75C6.4425 2.4375 6.1875 2.1825 6.1875 1.875C6.1875 1.5675 6.4425 1.3125 6.75 1.3125H11.25C11.5575 1.3125 11.8125 1.5675 11.8125 1.875C11.8125 2.1825 11.5575 2.4375 11.25 2.4375Z" fill="white"/>
<path id="Vector_4" d="M12.1125 16.89C11.85 16.89 11.61 16.83 11.3925 16.7025C10.8975 16.4175 10.6125 15.84 10.6125 15.12V13.3875C10.6125 12.6675 10.8975 12.09 11.3925 11.805C11.8875 11.52 12.525 11.565 13.1475 11.9175L14.6475 12.7875C15.27 13.1475 15.63 13.68 15.63 14.25C15.63 14.82 15.27 15.3525 14.6475 15.7125L13.1475 16.5825C12.8025 16.785 12.45 16.89 12.1125 16.89ZM12.12 12.735C12.06 12.735 12 12.75 11.955 12.7725C11.82 12.8475 11.7375 13.08 11.7375 13.38V15.1125C11.7375 15.4125 11.82 15.645 11.955 15.72C12.09 15.795 12.33 15.7575 12.585 15.6075L14.085 14.7375C14.3475 14.5875 14.505 14.4 14.505 14.25C14.505 14.1 14.3475 13.9125 14.085 13.7625L12.585 12.8925C12.4125 12.7875 12.2475 12.735 12.12 12.735Z" fill="white"/>
</g>
</g>
</svg>
