<svg width="23" height="23" viewBox="0 0 23 23" fill="none" xmlns="http://www.w3.org/2000/svg">
<g id="vuesax/bold/home">
<g id="home">
<path id="Vector" d="M19.6272 8.13406L13.6913 3.38531C12.5313 2.46094 10.7188 2.45188 9.56784 3.37625L3.6319 8.13406C2.78003 8.81375 2.26346 10.1731 2.44471 11.2425L3.58659 18.0756C3.8494 19.6072 5.27221 20.8125 6.8219 20.8125H16.4282C17.9597 20.8125 19.4097 19.58 19.6725 18.0666L20.8144 11.2334C20.9775 10.1731 20.461 8.81375 19.6272 8.13406ZM12.3047 17.1875C12.3047 17.5591 11.9966 17.8672 11.625 17.8672C11.2535 17.8672 10.9453 17.5591 10.9453 17.1875V14.4688C10.9453 14.0972 11.2535 13.7891 11.625 13.7891C11.9966 13.7891 12.3047 14.0972 12.3047 14.4688V17.1875Z" fill="#292D32"/>
</g>
</g>
</svg>
