<svg width="25" height="25" viewBox="0 0 25 25" fill="none" xmlns="http://www.w3.org/2000/svg">
<g id="vuesax/bold/info-circle">
<g id="info-circle">
<path id="Vector" d="M12.5 2.375C6.99 2.375 2.5 6.865 2.5 12.375C2.5 17.885 6.99 22.375 12.5 22.375C18.01 22.375 22.5 17.885 22.5 12.375C22.5 6.865 18.01 2.375 12.5 2.375ZM11.75 8.375C11.75 7.965 12.09 7.625 12.5 7.625C12.91 7.625 13.25 7.965 13.25 8.375V13.375C13.25 13.785 12.91 14.125 12.5 14.125C12.09 14.125 11.75 13.785 11.75 13.375V8.375ZM13.42 16.755C13.37 16.885 13.3 16.985 13.21 17.085C13.11 17.175 13 17.245 12.88 17.295C12.76 17.345 12.63 17.375 12.5 17.375C12.37 17.375 12.24 17.345 12.12 17.295C12 17.245 11.89 17.175 11.79 17.085C11.7 16.985 11.63 16.885 11.58 16.755C11.53 16.635 11.5 16.505 11.5 16.375C11.5 16.245 11.53 16.115 11.58 15.995C11.63 15.875 11.7 15.765 11.79 15.665C11.89 15.575 12 15.505 12.12 15.455C12.36 15.355 12.64 15.355 12.88 15.455C13 15.505 13.11 15.575 13.21 15.665C13.3 15.765 13.37 15.875 13.42 15.995C13.47 16.115 13.5 16.245 13.5 16.375C13.5 16.505 13.47 16.635 13.42 16.755Z" fill="#292D32"/>
</g>
</g>
</svg>
