<svg width="155" height="43" viewBox="0 0 155 43" fill="none" xmlns="http://www.w3.org/2000/svg">
<g id="Group 80">
<path id="Vector" d="M51.0972 27.7237V10.1291H48.2121V27.7237H51.0972Z" fill="#1C1C28"/>
<path id="Vector_2" d="M52.8629 21.8595C52.8629 25.4541 55.275 28.0082 58.9406 28.0082C62.6062 28.0082 65.0183 25.4541 65.0183 21.8595C65.0183 18.2649 62.6062 15.7108 58.9406 15.7108C55.275 15.7108 52.8629 18.2649 52.8629 21.8595ZM55.7717 21.8595C55.7717 19.7548 57.025 18.2886 58.9406 18.2886C60.8561 18.2886 62.1095 19.7548 62.1095 21.8595C62.1095 23.9406 60.8561 25.4305 58.9406 25.4305C57.025 25.4305 55.7717 23.9406 55.7717 21.8595Z" fill="#1C1C28"/>
<path id="Vector_3" d="M65.9888 21.6225C65.9888 25.0279 68.1881 27.4874 71.4753 27.4874C73.178 27.4874 74.6442 26.8015 75.3773 25.6664V27.6529C75.3773 29.5684 74.1712 30.8455 72.1611 30.8455C70.3638 30.8455 69.1341 29.9705 68.9685 28.4333H66.0597C66.4381 31.484 68.7793 33.4705 71.9956 33.4705C75.7794 33.4705 78.1915 30.9874 78.1915 27.1326V16.0413H75.6375L75.4719 17.6258C74.7625 16.3961 73.2962 15.663 71.5699 15.663C68.2354 15.663 65.9888 18.1934 65.9888 21.6225ZM68.9212 21.5515C68.9212 19.6123 70.151 18.1934 71.9719 18.1934C73.9584 18.1934 75.2827 19.636 75.2827 21.5515C75.2827 23.4907 73.9584 24.9806 71.9719 24.9806C70.1746 24.9806 68.9212 23.5144 68.9212 21.5515Z" fill="#1C1C28"/>
<path id="Vector_4" d="M79.6195 21.8595C79.6195 25.4541 82.0317 28.0082 85.6972 28.0082C89.3628 28.0082 91.775 25.4541 91.775 21.8595C91.775 18.2649 89.3628 15.7108 85.6972 15.7108C82.0317 15.7108 79.6195 18.2649 79.6195 21.8595ZM82.5283 21.8595C82.5283 19.7548 83.7817 18.2886 85.6972 18.2886C87.6128 18.2886 88.8662 19.7548 88.8662 21.8595C88.8662 23.9406 87.6128 25.4305 85.6972 25.4305C83.7817 25.4305 82.5283 23.9406 82.5283 21.8595Z" fill="#1C1C28"/>
<path id="Vector_5" d="M94.8972 13.6531C95.8432 13.6531 96.6236 12.8964 96.6236 11.9268C96.6236 10.9808 95.8432 10.224 94.8972 10.224C93.9276 10.224 93.1945 10.9808 93.1945 11.9268C93.1945 12.8964 93.9276 13.6531 94.8972 13.6531ZM93.4547 27.7241H96.3398V16.0416H93.4547V27.7241Z" fill="#1C1C28"/>
<path id="Vector_6" d="M98.8676 33.1393H101.682V26.1157C102.415 27.3217 104 28.0312 105.75 28.0312C109.202 28.0312 111.26 25.3825 111.212 21.7406C111.141 18.0751 109.037 15.6865 105.726 15.6865C103.952 15.6865 102.344 16.467 101.635 17.8149L101.469 16.0413H98.8676V33.1393ZM101.8 21.8825C101.8 19.7778 103.077 18.3116 105.087 18.3116C107.098 18.3116 108.304 19.8014 108.304 21.8825C108.304 23.9636 107.098 25.4298 105.087 25.4298C103.077 25.4298 101.8 23.9873 101.8 21.8825Z" fill="#1C1C28"/>
<path id="Vector_7" d="M111.945 24.2237C112.039 26.5413 113.836 28.0312 116.627 28.0312C119.37 28.0312 121.238 26.565 121.238 24.2947C121.238 22.6156 120.198 21.4805 118.282 21.0075L116.225 20.5109C115.35 20.2744 114.759 19.967 114.759 19.2102C114.759 18.4061 115.397 17.8386 116.438 17.8386C117.526 17.8386 118.235 18.4534 118.235 19.4703H120.86C120.766 17.1528 119.039 15.6865 116.509 15.6865C114.002 15.6865 112.134 17.1528 112.134 19.3757C112.134 20.8893 113.009 22.1427 115.255 22.7339L117.289 23.2541C118.046 23.467 118.519 23.8217 118.519 24.4839C118.519 25.4062 117.644 25.8319 116.58 25.8319C115.303 25.8319 114.57 25.2406 114.57 24.2237H111.945Z" fill="#1C1C28"/>
<path id="Vector_8" d="M127.224 28.0315C128.808 28.0315 130.322 27.2984 131.007 26.2105L131.197 27.724H133.892V16.0415H131.007V22.1666C131.007 24.2713 130.203 25.4537 128.311 25.4537C126.845 25.4537 125.828 24.7443 125.828 22.3321V16.0415H122.943V23.349C122.943 26.1396 124.457 28.0315 127.224 28.0315Z" fill="#1C1C28"/>
<path id="Vector_9" d="M139.324 27.7238V21.0075C139.324 19.1156 140.435 18.217 141.807 18.217C143.178 18.217 144.077 19.092 144.077 20.7474V27.7238H146.891V21.0312C146.891 19.1156 147.979 18.217 149.351 18.217C150.746 18.217 151.645 19.092 151.645 20.7474V27.7238H154.435V20.0852C154.435 17.3893 152.945 15.6865 150.107 15.6865C148.334 15.6865 146.938 16.5379 146.371 17.9095C145.732 16.5379 144.455 15.6865 142.516 15.6865C141.144 15.6865 139.915 16.3251 139.229 17.3656L139.087 16.0413H136.438V27.7238H139.324Z" fill="#1C1C28"/>
<path id="Vector_10" d="M132.407 38.1646C132.837 38.1646 133.21 37.8027 133.21 37.3729C133.21 36.9318 132.837 36.5699 132.407 36.5699C131.966 36.5699 131.593 36.9318 131.593 37.3729C131.593 37.8027 131.966 38.1646 132.407 38.1646Z" fill="#1C1C28"/>
<path id="Vector_11" d="M134.04 35.2466C134.04 36.9771 135.103 38.142 136.652 38.142C137.987 38.142 139.005 37.339 139.22 36.1401H138.202C138.009 36.8074 137.421 37.2033 136.72 37.2033C135.725 37.2033 135.091 36.4342 135.091 35.2353C135.091 34.0138 135.759 33.2673 136.743 33.2673C137.421 33.2673 138.009 33.6292 138.19 34.3418H139.208C139.027 33.1316 138.077 32.3172 136.754 32.3172C135.148 32.3172 134.04 33.5048 134.04 35.2466Z" fill="#1C1C28"/>
<path id="Vector_12" d="M139.621 35.2351C139.621 36.8977 140.752 38.1418 142.448 38.1418C144.145 38.1418 145.276 36.8977 145.276 35.2351C145.276 33.5724 144.145 32.3283 142.448 32.3283C140.752 32.3283 139.621 33.5724 139.621 35.2351ZM140.695 35.2351C140.695 34.104 141.385 33.2784 142.448 33.2784C143.512 33.2784 144.201 34.104 144.201 35.2351C144.201 36.3661 143.512 37.1917 142.448 37.1917C141.385 37.1917 140.695 36.3661 140.695 35.2351Z" fill="#1C1C28"/>
<path id="Vector_13" d="M147.247 38.0174V34.6922C147.247 33.8213 147.79 33.2558 148.581 33.2558C149.339 33.2558 149.814 33.7421 149.814 34.613V38.0174H150.855V34.7035C150.855 33.8213 151.386 33.2558 152.189 33.2558C152.936 33.2558 153.411 33.7421 153.411 34.613V38.0174H154.44V34.3868C154.44 33.1087 153.694 32.3283 152.427 32.3283C151.567 32.3283 150.9 32.7468 150.629 33.4254C150.346 32.7468 149.724 32.3283 148.819 32.3283C148.129 32.3283 147.518 32.645 147.213 33.1879L147.134 32.4867H146.184V38.0174H147.247Z" fill="#1C1C28"/>
<path id="Vector_14" fill-rule="evenodd" clip-rule="evenodd" d="M0.263611 22.0025L0.265595 21.7964L0.269687 21.5903L0.275898 21.3841L0.284216 21.1779L0.294663 20.9718L0.307217 20.7656L0.3219 20.5596L0.338691 20.3535L0.35761 20.1476L0.378647 19.9416L0.401802 19.736L0.427065 19.5303L0.454457 19.3249L0.483966 19.1197L0.515583 18.9146L0.549319 18.7099L0.585173 18.5053L0.623124 18.3011L0.663193 18.0971L0.70537 17.8934L0.749655 17.6901L0.796027 17.4871L0.844517 17.2845L0.895085 17.0823L0.94776 16.8805L1.00251 16.6791L1.05936 16.4782L1.11829 16.2778L1.17929 16.0779L1.24236 15.8786L1.30751 15.6797L1.37472 15.4814L1.44399 15.2836L1.51531 15.0865L1.58868 14.89L1.66409 14.6942L1.74155 14.499L1.82103 14.3045L1.90253 14.1108L1.98605 13.9177L2.07159 13.7253L2.15913 13.5337L2.24867 13.343L2.3402 13.153L2.43372 12.9638L2.5292 12.7755L2.62666 12.5881L2.72608 12.4015L2.82744 12.2159L2.93074 12.0311L3.03599 11.8473L3.14315 11.6644L3.25223 11.4826L3.36321 11.3017L3.4761 11.1219L3.59087 10.9431L3.70752 10.7654L3.82604 10.5886L3.94641 10.4131L4.06864 10.2386L4.19269 10.0653L4.31856 9.89315L4.44626 9.72206L4.57575 9.5523L4.70704 9.38367L4.8401 9.21622L4.97493 9.05006L5.11152 8.88516L5.24984 8.72153L5.3899 8.55919L5.53168 8.39816L5.67516 8.23847L5.82033 8.08011L5.96719 7.92313L6.11571 7.76752L6.26588 7.61331L6.41768 7.4605L6.57111 7.30913L6.72615 7.15921L6.88279 7.01075L7.04101 6.86377L7.20079 6.71828L7.36213 6.57431L7.52501 6.43186L7.68941 6.29095L7.85531 6.15161L8.0227 6.01384L8.19158 5.87765L8.36191 5.74307L8.53369 5.6101L8.70684 5.47878L8.88153 5.34909L9.05756 5.22108L9.23493 5.09474L9.41363 4.97009L9.59377 4.84715L9.77515 4.72591L9.95786 4.60643L10.1419 4.48868L10.3273 4.37269L10.5138 4.25848L10.7017 4.14605L10.8907 4.03542L11.0809 3.92661L11.2723 3.81961L11.4649 3.71446L11.6586 3.61114L11.8535 3.5097L12.0494 3.41012L12.2465 3.31243L12.4447 3.21663L12.644 3.12273L12.8441 3.03076L13.0455 2.94072L13.2477 2.85261L13.451 2.76646L13.6552 2.68227L13.8603 2.60004L14.0664 2.51979L14.2734 2.44154L14.4812 2.36528L14.6899 2.29105L14.8994 2.21881L15.1098 2.14861L15.3209 2.08045L15.5328 2.01432L15.7455 1.95026L15.959 1.88826L16.1731 1.82832L16.388 1.77045L16.6035 1.71467L16.8196 1.66099L17.0364 1.60942L17.2538 1.55993L17.4718 1.51257L17.6903 1.46732L17.9094 1.42419L18.129 1.38321L18.3492 1.34435L18.5698 1.30765L18.7909 1.27309L19.0124 1.24068L19.2342 1.21044L19.4565 1.18236L19.6793 1.15645L19.9023 1.1327L20.1256 1.11115L20.3492 1.09176L20.5732 1.07456L20.7973 1.05956L22.0028 0.990723L22.0716 6.79873L22.111 6.79828L22.2774 6.79804L22.4439 6.79944L22.6104 6.80247L22.777 6.80715L22.9436 6.81346L23.1103 6.8214L23.277 6.83099L23.4436 6.84223L23.6102 6.8551L23.7769 6.86961L23.9433 6.88578L24.1098 6.90359L24.2761 6.92303L24.4423 6.94412L24.6084 6.96685L24.7743 6.99122L24.9401 7.01724L25.1057 7.0449L25.2711 7.0742L25.4363 7.10513L25.6012 7.13771L25.7658 7.17193L25.9303 7.20777L26.0944 7.24525L26.2582 7.28435L26.4218 7.32509L26.585 7.36746L26.7478 7.41145L26.9102 7.45706L27.0724 7.50429L27.234 7.55312L27.3952 7.60358L27.556 7.65565L27.7164 7.70932L27.8763 7.76459L28.0357 7.82146L28.1947 7.87991L28.353 7.93997L28.5108 8.0016L28.6682 8.06482L28.8249 8.12962L28.9809 8.19598L29.1365 8.26391L29.2915 8.33341L29.4457 8.40446L29.5993 8.47705L29.7523 8.5512L29.9046 8.62688L30.0561 8.7041L30.207 8.78284L30.3571 8.8631L30.5065 8.94489L30.6551 9.02817L30.8029 9.11296L30.95 9.19923L31.0962 9.28702L31.2416 9.37627L31.3861 9.46696L31.5298 9.55919L31.6726 9.65276L31.8145 9.74787L31.9555 9.84441L32.0956 9.9423L32.2348 10.0417L32.373 10.1425L32.5102 10.2447L32.6465 10.3483L32.7817 10.4533L32.916 10.5597L33.0491 10.6674L33.1814 10.7765L33.3125 10.887L33.4425 10.9988L33.5716 11.1119L33.6995 11.2263L33.8262 11.3421L33.9518 11.4592L34.0763 11.5776L34.1997 11.6971L34.3219 11.8181L34.4429 11.9402L34.5627 12.0637L34.6813 12.1883L34.7986 12.3142L34.9148 12.4413L35.0297 12.5696L35.1433 12.699L35.2557 12.8297L35.3667 12.9615L35.4765 13.0945L35.585 13.2287L35.6922 13.3639L35.798 13.5002L35.9024 13.6377L36.0055 13.7763L36.1072 13.9159L36.2076 14.0567L36.3065 14.1985L36.4041 14.3412L36.5002 14.485L36.5949 14.6299L36.6882 14.7758L36.7799 14.9226L36.8703 15.0704L36.9591 15.2192L37.0465 15.3689L37.1324 15.5195L37.2168 15.6711L37.2997 15.8235L37.381 15.9769L37.4608 16.1311L37.539 16.2861L37.6157 16.442L37.6909 16.5988L37.7645 16.7563L37.8365 16.9147L37.9069 17.0738L37.9757 17.2337L38.0428 17.3944L38.1084 17.5558L38.1724 17.7179L38.2347 17.8807L38.2954 18.0443L38.3544 18.2084L38.4118 18.3733L38.4675 18.5387L38.5216 18.7049L38.5739 18.8716L38.6246 19.0389L38.6735 19.2068L38.7208 19.3752L38.7664 19.5442L38.8103 19.7138L38.8523 19.8837L38.8929 20.0543L38.9315 20.2253L38.9684 20.3968L39.0037 20.5686L39.0371 20.7411L39.0688 20.9138L39.0988 21.0869L39.127 21.2604L39.1534 21.4343L39.1781 21.6086L39.2009 21.783L39.222 21.9579L39.2413 22.133L39.2588 22.3085L39.2745 22.4841L39.2885 22.66L39.3006 22.8361L39.3109 23.0125L39.3195 23.1889L39.3262 23.3657L39.3311 23.5424L39.3343 23.7194L39.3355 23.8964L39.335 24.0736L39.3326 24.2508L39.3284 24.4282L39.3224 24.6055L39.3146 24.7828L39.3051 24.9602L39.2936 25.1376L39.2803 25.3149L39.2652 25.4922L39.2482 25.6695L39.2295 25.8466L39.2088 26.0236L39.1864 26.2005L39.1623 26.3773L39.1361 26.5539L39.1083 26.7304L39.0786 26.9066L39.047 27.0826L39.0137 27.2584L38.9785 27.4341L38.9415 27.6094L38.9026 27.7844L38.862 27.9592L38.8196 28.1336L38.7753 28.3076L38.7293 28.4813L38.6815 28.6547L38.6318 28.8276L38.5804 29.0001L38.5271 29.1724L38.472 29.344L38.4153 29.5153L38.3566 29.6859L38.2962 29.8562L38.2341 30.026L38.1701 30.1951L38.1044 30.3637L38.037 30.5319L37.9678 30.6993L37.8968 30.8662L37.8241 31.0326L37.7497 31.1981L37.6735 31.3632L37.5956 31.5275L37.516 31.6911L37.4346 31.854L37.3516 32.0162L37.2667 32.1777L37.1804 32.3383L37.0922 32.4983L37.0024 32.6574L36.9109 32.8157L36.8177 32.9732L36.7229 33.1298L36.6265 33.2857L36.5283 33.4405L36.4286 33.5946L36.3273 33.7477L36.2242 33.8999L36.1197 34.0511L36.0135 34.2014L35.9057 34.3507L35.7963 34.4991L35.6854 34.6464L35.5729 34.7927L35.4588 34.9379L35.3433 35.0822L35.2262 35.2253L35.1075 35.3673L34.9873 35.5083L34.8657 35.6481L34.7425 35.7868L34.6179 35.9244L34.4918 36.0608L34.3643 36.196L34.2353 36.3301L34.1049 36.4629L33.973 36.5945L33.8397 36.7248L33.7051 36.854L33.5691 36.9819L33.4317 37.1085L33.2929 37.2338L33.1528 37.3577L33.0114 37.4804L32.8686 37.6018L32.7245 37.7218L32.5792 37.8404L32.4325 37.9577L32.2846 38.0735L32.1354 38.188L31.9849 38.301L31.8333 38.4127L31.6805 38.5229L31.5264 38.6316L31.3711 38.7389L31.2147 38.8447L31.0572 38.949L30.8984 39.0518L30.7387 39.1532L30.5777 39.2529L30.4157 39.3512L30.2525 39.4479L30.0883 39.5431L29.9232 39.6366L29.7568 39.7286L29.5896 39.819L29.4213 39.9078L29.2521 39.995L29.0818 40.0806L28.9106 40.1645L28.7385 40.2468L28.5654 40.3275L28.3915 40.4065L28.2167 40.4838L28.041 40.5593L27.8644 40.6333L27.687 40.7056L27.5089 40.7761L27.3298 40.8449L27.15 40.912L26.9695 40.9773L26.7881 41.041L26.6061 41.1028L26.4234 41.1629L26.2398 41.2212L26.0557 41.2778L25.8709 41.3326L25.6855 41.3855L25.4994 41.4367L25.3128 41.4862L25.1255 41.5337L24.9377 41.5794L24.7493 41.6234L24.5604 41.6655L24.371 41.7058L24.1811 41.7443L23.9906 41.7809L23.7998 41.8156L23.6086 41.8484L23.4168 41.8795L23.2247 41.9087L23.0321 41.9359L22.8393 41.9613L22.6461 41.9849L22.4525 42.0064L22.2587 42.0262L22.0646 42.0441L21.8703 42.06L21.6756 42.0741L21.4808 42.0862L21.2856 42.0965L21.0904 42.1048L20.895 42.1112L20.6993 42.1157L20.5037 42.1183L20.3078 42.119L20.1119 42.1178L19.9159 42.1146L19.7199 42.1096L19.5238 42.1025L19.3277 42.0935L19.1316 42.0827L18.9357 42.0699L18.7396 42.0552L18.5437 42.0385L18.3478 42.0199L18.1521 41.9995L17.9565 41.977L17.761 41.9527L17.5657 41.9263L17.3706 41.8981L17.1757 41.8679L16.981 41.8359L16.7866 41.8019L16.5924 41.7659L16.3986 41.7281L16.2049 41.6884L16.0117 41.6467L15.8187 41.6031L15.6263 41.5576L15.4341 41.5102L15.2423 41.4609L15.051 41.4097L14.8601 41.3566L14.6697 41.3016L14.4797 41.2447L14.2903 41.1859L14.1014 41.1253L13.9131 41.0628L13.7252 40.9983L13.538 40.932L13.3514 40.8639L13.1654 40.7939L12.98 40.722L12.7953 40.6483L12.6113 40.5727L12.4279 40.4953L12.2453 40.4161L12.0634 40.3351L11.8823 40.2522L11.7019 40.1675L11.5224 40.081L11.3437 39.9927L11.1657 39.9026L10.9886 39.8108L10.8125 39.7171L10.6371 39.6218L10.4627 39.5247L10.2893 39.4257L10.1167 39.3251L9.94511 39.2227L9.77453 39.1186L9.60488 39.0127L9.43625 38.9053L9.26876 38.796L9.10219 38.6851L8.93675 38.5724L8.77244 38.4582L8.60916 38.3423L8.44702 38.2247L8.28603 38.1055L8.12618 37.9846L7.96752 37.8622L7.81004 37.7381L7.65376 37.6124L7.49872 37.4852L7.34491 37.3564L7.19235 37.226L7.04107 37.0941L6.89109 36.9605L6.74241 36.8255L6.59506 36.6891L6.44903 36.551L6.30437 36.4116L6.16108 36.2705L6.01917 36.1281L5.87866 35.9842L5.73958 35.8388L5.60192 35.6921L5.46571 35.544L5.33098 35.3943L5.19771 35.2434L5.06594 35.0911L4.93567 34.9374L4.80693 34.7825L4.67973 34.6261L4.55407 34.4684L4.42999 34.3095L4.30748 34.1493L4.18656 33.9878L4.06725 33.825L3.94956 33.661L3.8335 33.4958L3.71909 33.3294L3.60633 33.1618L3.49526 32.993L3.38587 32.8231L3.27816 32.652L3.17217 32.4798L3.06791 32.3065L2.96538 32.132L2.86461 31.9566L2.76558 31.7801L2.66832 31.6025L2.57285 31.4238L2.47916 31.2442L2.38729 31.0636L2.29722 30.8821L2.20899 30.6996L2.12259 30.516L2.03803 30.3317L1.95533 30.1463L1.87449 29.9602L1.79554 29.773L1.71847 29.5852L1.64329 29.3964L1.57002 29.2068L1.49867 29.0165L1.42924 28.8253L1.36174 28.6335L1.29617 28.4409L1.23255 28.2475L1.1709 28.0535L1.1112 27.8587L1.05349 27.6634L0.997751 27.4673L0.943996 27.2706L0.892237 27.0734L0.842481 26.8755L0.794732 26.6771L0.749007 26.4781L0.705298 26.2786L0.663614 26.0786L0.623967 25.8781L0.586355 25.6772L0.550789 25.4757L0.51728 25.2739L0.485817 25.0717L0.45642 24.869L0.429091 24.6659L0.403838 24.4625L0.380652 24.2589L0.359543 24.0549L0.340521 23.8507L0.323586 23.646L0.308739 23.4412L0.295989 23.2362L0.285337 23.031L0.276782 22.8255L0.270325 22.62L0.265976 22.4143L0.263744 22.2084L0.263611 22.0025ZM20.1883 6.92039L20.1414 2.96158L20.0969 2.96588L19.8925 2.98764L19.6886 3.01137L19.4848 3.03711L19.2819 3.06477L19.0791 3.09445L18.8765 3.1261L18.6746 3.15971L18.4729 3.19531L18.2722 3.23277L18.0711 3.27233L17.8716 3.31366L17.6717 3.35708L17.4728 3.40234L17.2742 3.44962L17.0765 3.49871L16.8792 3.54977L16.6825 3.60273L16.4865 3.65761L16.2913 3.71432L16.0965 3.77299L15.9026 3.83348L15.7093 3.89589L15.5171 3.96003L15.3251 4.0262L15.1342 4.09413L14.9442 4.16386L14.7547 4.2355L14.5662 4.30888L14.3787 4.38403L14.1918 4.46112L14.0058 4.53995L13.8207 4.62058L13.6367 4.70291L13.4536 4.78703L13.2715 4.87284L13.09 4.96055L12.9098 5.04986L12.7306 5.14091L12.5524 5.23367L12.3753 5.32816L12.1994 5.42425L12.0241 5.52213L11.8501 5.6217L11.6775 5.72269L11.5055 5.82565L11.3351 5.92999L11.1659 6.03594L10.9975 6.14364L10.8304 6.2529L10.6645 6.36377L10.5002 6.47593L10.3366 6.59009L10.1745 6.70546L10.0137 6.82243L9.85401 6.941L9.69577 7.06098L9.53897 7.1824L9.38309 7.30553L9.22896 7.42983L9.07597 7.55577L8.92441 7.68307L8.77419 7.81185L8.62551 7.94187L8.47794 8.07353L8.33206 8.20637L8.18742 8.34073L8.04446 8.47623L7.9028 8.6132L7.76272 8.7514L7.62407 8.89097L7.48676 9.03198L7.35125 9.17395L7.21727 9.31715L7.08447 9.46202L6.95352 9.60782L6.82417 9.75465L6.69615 9.90302L6.56999 10.0523L6.44523 10.203L6.32214 10.3546L6.20067 10.5075L6.08078 10.6614L5.96266 10.8164L5.84608 10.9725L5.73111 11.1298L5.61798 11.2878L5.50637 11.4472L5.39654 11.6074L5.2884 11.7686L5.18189 11.9309L5.07718 12.094L4.97418 12.258L4.87291 12.4231L4.77345 12.5889L4.67563 12.7558L4.57956 12.9236L4.48539 13.092L4.3929 13.2614L4.30218 13.4316L4.21331 13.6026L4.12618 13.7744L4.04092 13.9469L3.95744 14.1201L3.8758 14.2941L3.79594 14.4689L3.71797 14.6442L3.64177 14.8203L3.56743 14.9971L3.49499 15.1743L3.42436 15.3523L3.35559 15.5309L3.2887 15.71L3.22367 15.8898L3.16056 16.0699L3.09926 16.2508L3.03987 16.432L2.98239 16.6138L2.9268 16.7959L2.87307 16.9787L2.82128 17.1618L2.77138 17.3453L2.72337 17.5291L2.67728 17.7135L2.63311 17.8981L2.59085 18.083L2.5505 18.2683L2.51207 18.4539L2.47557 18.6397L2.44098 18.8258L2.40833 19.0121L2.3776 19.1987L2.3488 19.3855L2.32192 19.5724L2.29697 19.7595L2.27395 19.9468L2.25286 20.1341L2.23371 20.3216L2.21649 20.5092L2.20119 20.6967L2.18782 20.8845L2.17639 21.0722L2.16687 21.2599L2.1593 21.4476L2.15364 21.6353L2.14992 21.8229L2.14811 22.0105L2.14823 22.198L2.15027 22.3854L2.15423 22.5727L2.1601 22.7598L2.16788 22.9468L2.17759 23.1336L2.18919 23.3201L2.2027 23.5065L2.21811 23.6926L2.23543 23.8785L2.25462 24.0642L2.27572 24.2495L2.2987 24.4346L2.32356 24.6192L2.35031 24.8036L2.37893 24.9877L2.40941 25.1712L2.44177 25.3544L2.47597 25.5372L2.51203 25.7195L2.54994 25.9015L2.58969 26.0829L2.63129 26.2639L2.67471 26.4443L2.71995 26.6243L2.76702 26.8037L2.81588 26.9824L2.86657 27.1607L2.91905 27.3383L2.97332 27.5154L3.02938 27.6918L3.08719 27.8676L3.14679 28.0427L3.20815 28.217L3.27126 28.3908L3.3361 28.5638L3.40272 28.7361L3.47102 28.9076L3.54105 29.0784L3.61281 29.2483L3.68626 29.4175L3.76141 29.5859L3.83824 29.7535L3.91674 29.9202L3.9969 30.086L4.07872 30.2509L4.16218 30.415L4.24729 30.5782L4.33401 30.7405L4.42235 30.9018L4.51229 31.0621L4.60382 31.2215L4.69693 31.3799L4.79163 31.5372L4.88784 31.6936L4.98566 31.849L5.08498 32.0032L5.18585 32.1565L5.28823 32.3087L5.39208 32.4597L5.49743 32.6098L5.6043 32.7586L5.71259 32.9064L5.82237 33.053L5.93354 33.1984L6.0462 33.3427L6.16021 33.4857L6.27565 33.6276L6.39252 33.7683L6.51069 33.9078L6.63027 34.046L6.75118 34.1829L6.87346 34.3186L6.99703 34.453L7.12189 34.5862L7.24807 34.718L7.37552 34.8486L7.50427 34.9778L7.63423 35.1056L7.76548 35.2322L7.89789 35.3573L8.03152 35.4812L8.16639 35.6037L8.30242 35.7247L8.43953 35.8443L8.5779 35.9625L8.71743 36.0793L8.85788 36.1947L8.99967 36.3087L9.14239 36.4211L9.28624 36.5322L9.43111 36.6418L9.57712 36.7498L9.72405 36.8564L9.87201 36.9614L10.0209 37.065L10.1709 37.1671L10.3217 37.2675L10.4737 37.3666L10.6264 37.464L10.7801 37.5599L10.9348 37.6542L11.0901 37.747L11.2465 37.8382L11.4036 37.9277L11.5617 38.0158L11.7204 38.1021L11.8801 38.187L12.0404 38.2701L12.2015 38.3518L12.3635 38.4317L12.5261 38.51L12.6894 38.5867L12.8534 38.6618L13.018 38.7351L13.1835 38.8069L13.3494 38.8769L13.5161 38.9454L13.6833 39.0121L13.8511 39.0771L14.0195 39.1405L14.1883 39.2022L14.3578 39.2622L14.5278 39.3205L14.6983 39.3771L14.8693 39.432L15.0406 39.4852L15.2126 39.5367L15.3848 39.5865L15.5576 39.6345L15.7307 39.6808L15.9042 39.7255L16.0781 39.7683L16.2521 39.8095L16.4267 39.849L16.6015 39.8866L16.7765 39.9226L16.9519 39.9568L17.1276 39.9893L17.3034 40.0201L17.4794 40.049L17.6556 40.0763L17.8321 40.1018L18.0087 40.1255L18.1854 40.1477L18.3622 40.1679L18.5392 40.1864L18.7162 40.2033L18.8934 40.2183L19.0706 40.2317L19.2477 40.2432L19.425 40.253L19.6021 40.2611L19.7793 40.2674L19.9565 40.2721L20.1336 40.2748L20.3106 40.276L20.4875 40.2754L20.6644 40.273L20.841 40.269L21.0176 40.2631L21.194 40.2556L21.3702 40.2464L21.5462 40.2354L21.722 40.2227L21.8976 40.2083L22.0729 40.1922L22.2479 40.1743L22.4227 40.1547L22.5971 40.1336L22.7713 40.1106L22.945 40.086L23.1185 40.0596L23.2916 40.0317L23.4643 40.002L23.6366 39.9706L23.8084 39.9376L23.9798 39.9029L24.1508 39.8665L24.3213 39.8286L24.4913 39.7889L24.6608 39.7476L24.8298 39.7047L24.9982 39.6601L25.166 39.6139L25.3334 39.5661L25.5 39.5166L25.6662 39.4656L25.8316 39.4131L25.9966 39.3588L26.1608 39.3031L26.3242 39.2457L26.4871 39.1867L26.6493 39.1262L26.8107 39.0641L26.9714 39.0006L27.1313 38.9355L27.2905 38.8688L27.4489 38.8006L27.6065 38.7309L27.7632 38.6597L27.9193 38.587L28.0745 38.5128L28.2287 38.4372L28.3822 38.36L28.5347 38.2815L28.6864 38.2015L28.8372 38.1199L28.9869 38.037L29.1358 37.9527L29.2836 37.8671L29.4308 37.7799L29.5766 37.6915L29.7218 37.6015L29.8656 37.5103L30.0085 37.4177L30.1505 37.3237L30.2915 37.2283L30.4311 37.1318L30.5698 37.0338L30.7075 36.9346L30.844 36.8341L30.9796 36.7323L31.1137 36.6293L31.2471 36.5249L31.379 36.4194L31.5098 36.3126L31.6397 36.2046L31.7682 36.0953L31.8954 35.985L32.0216 35.8733L32.1464 35.7606L32.2701 35.6467L32.3925 35.5316L32.5135 35.4155L32.6335 35.2981L32.7522 35.1797L32.8695 35.0602L32.9856 34.9396L33.1002 34.818L33.2136 34.6955L33.3258 34.5715L33.4365 34.4469L33.546 34.321L33.6539 34.1943L33.7607 34.0665L33.866 33.9379L33.9698 33.8082L34.0724 33.6776L34.1735 33.5461L34.2733 33.4136L34.3715 33.2804L34.4685 33.1461L34.5641 33.0109L34.6579 32.8751L34.7505 32.7383L34.8415 32.6008L34.9312 32.4623L35.0195 32.323L35.1061 32.1832L35.1912 32.0425L35.275 31.9007L35.3571 31.7587L35.4378 31.6157L35.517 31.4719L35.5946 31.3278L35.6708 31.1826L35.7454 31.0368L35.8183 30.8909L35.8899 30.7438L35.9599 30.5961L36.0283 30.4481L36.0951 30.2994L36.1604 30.1501L36.224 30.0004L36.2863 29.8498L36.3468 29.6989L36.4057 29.5479L36.4631 29.3957L36.5188 29.2435L36.5731 29.0906L36.6258 28.9374L36.6768 28.7837L36.726 28.63L36.7739 28.4751L36.82 28.3205L36.8645 28.1653L36.9075 28.01L36.9488 27.854L36.9884 27.698L37.0266 27.5415L37.063 27.3847L37.0978 27.2278L37.131 27.0705L37.1625 26.9133L37.1924 26.7553L37.2207 26.5978L37.2473 26.4397L37.2723 26.2814L37.2956 26.1232L37.3174 25.9647L37.3375 25.8063L37.356 25.6472L37.3728 25.4888L37.388 25.3298L37.4014 25.1712L37.4134 25.012L37.4237 24.8535L37.4323 24.6944L37.4393 24.5352L37.4446 24.3765L37.4484 24.218L37.4505 24.059L37.451 23.9002L37.4499 23.7417L37.4471 23.5832L37.4427 23.4248L37.4366 23.2669L37.429 23.1085L37.4197 22.9508L37.4088 22.793L37.3964 22.6358L37.3823 22.4783L37.3667 22.3215L37.3494 22.1646L37.3305 22.0082L37.31 21.8519L37.288 21.6962L37.2643 21.5403L37.2391 21.3851L37.2124 21.2305L37.184 21.0757L37.154 20.9215L37.1225 20.7679L37.0894 20.6142L37.0549 20.4616L37.0186 20.3088L36.9811 20.157L36.9417 20.0051L36.901 19.8542L36.8588 19.7036L36.815 19.5533L36.7697 19.4039L36.7229 19.255L36.6745 19.1062L36.6248 18.9585L36.5734 18.811L36.5208 18.6644L36.4665 18.5181L36.4109 18.3728L36.3536 18.2277L36.295 18.0834L36.235 17.9401L36.1737 17.7974L36.1105 17.6549L36.0465 17.5137L35.9806 17.3726L35.9135 17.2329L35.845 17.0937L35.775 16.955L35.7039 16.8174L35.6312 16.6805L35.557 16.5441L35.482 16.4091L35.4052 16.2744L35.3272 16.1409L35.2478 16.0079L35.1674 15.8763L35.0852 15.745L35.0021 15.6149L34.9175 15.4855L34.8317 15.3572L34.7449 15.23L34.6564 15.1033L34.5669 14.9777L34.4762 14.8531L34.3842 14.7296L34.291 14.6069L34.1966 14.4853L34.1011 14.3646L34.0043 14.245L33.9065 14.1265L33.8073 14.0089L33.7071 13.8924L33.6058 13.7769L33.5035 13.6626L33.4 13.5493L33.2951 13.4369L33.1897 13.326L33.0826 13.2158L32.9749 13.1071L32.866 12.9993L32.7562 12.8927L32.645 12.787L32.5333 12.683L32.4202 12.5798L32.3062 12.4778L32.1915 12.3771L32.0757 12.2776L31.9586 12.179L31.8409 12.0818L31.7223 11.9859L31.6028 11.8912L31.4823 11.7976L31.3611 11.7056L31.2387 11.6143L31.1158 11.5247L30.9919 11.4363L30.8671 11.349L30.7417 11.2631L30.6151 11.1783L30.4884 11.0952L30.3603 11.0131L30.2318 10.9324L30.1022 10.8529L29.9721 10.7747L29.8413 10.698L29.71 10.6228L29.5775 10.5484L29.445 10.4758L29.3113 10.4044L29.1771 10.3344L29.0424 10.2658L28.9069 10.1984L28.7709 10.1324L28.6343 10.0679L28.4971 10.0047L28.3595 9.94302L28.2212 9.88256L28.078 9.82169L27.9433 9.76606L27.8031 9.70972L27.6632 9.65512L27.5221 9.60155L27.381 9.54973L27.2394 9.49914L27.0974 9.4501L26.9548 9.40229L26.812 9.35612L26.6687 9.31129L26.5251 9.2679L26.3813 9.22605L26.237 9.1855L26.0921 9.14634L25.9474 9.10878L25.8024 9.07265L25.6565 9.03785L25.5111 9.00465L25.365 8.97277L25.2189 8.94244L25.0723 8.91349L24.9259 8.88605L24.7791 8.86004L24.6323 8.83554L24.4849 8.8124L24.3379 8.7908L24.1905 8.77063L24.043 8.7519L23.8954 8.73465L23.7479 8.71888L23.6002 8.70454L23.4525 8.69167L23.3046 8.68025L23.1567 8.67027L23.0091 8.66178L22.8615 8.65474L22.7133 8.64913L22.5659 8.645L22.4183 8.64231L22.2708 8.64107L22.123 8.64128L22.0934 8.64162L22.14 12.5716L22.2238 12.5712L22.3316 12.5718L22.4395 12.5735L22.5474 12.5763L22.6555 12.5801L22.7636 12.585L22.8716 12.591L22.9798 12.598L23.088 12.6061L23.1961 12.6152L23.3043 12.6255L23.4124 12.6368L23.5205 12.6493L23.6286 12.6627L23.7366 12.6772L23.8445 12.693L23.9524 12.7096L24.0601 12.7274L24.1679 12.7463L24.2754 12.7663L24.3829 12.7873L24.4902 12.8095L24.5975 12.8326L24.7045 12.8569L24.8113 12.8823L24.9181 12.9087L25.0245 12.9361L25.1308 12.9647L25.2369 12.9943L25.3428 13.0251L25.4485 13.0568L25.5539 13.0896L25.659 13.1236L25.7639 13.1585L25.8686 13.1946L25.9728 13.2317L26.0769 13.2699L26.1805 13.3091L26.2839 13.3494L26.387 13.3907L26.4897 13.4331L26.592 13.4766L26.694 13.521L26.7956 13.5665L26.8968 13.613L26.9975 13.6606L27.098 13.7092L27.1979 13.7589L27.2975 13.8096L27.3966 13.8613L27.4952 13.914L27.5934 13.9677L27.691 14.0224L27.7882 14.0782L27.885 14.1349L27.9812 14.1927L28.0768 14.2514L28.1719 14.3112L28.2665 14.3719L28.3606 14.4336L28.4541 14.4962L28.547 14.5599L28.6394 14.6246L28.7311 14.69L28.8222 14.7566L28.9127 14.8241L29.0026 14.8925L29.0918 14.9619L29.1804 15.0322L29.2683 15.1034L29.3556 15.1756L29.4422 15.2487L29.5281 15.3226L29.6134 15.3975L29.6979 15.4732L29.7817 15.5499L29.8647 15.6275L29.947 15.7059L30.0286 15.7852L30.1094 15.8654L30.1895 15.9464L30.2688 16.0284L30.3473 16.111L30.425 16.1946L30.5019 16.279L30.5779 16.3643L30.6532 16.4502L30.7277 16.5371L30.8013 16.6247L30.8741 16.7132L30.9459 16.8024L31.017 16.8924L31.0871 16.9832L31.1564 17.0747L31.2248 17.167L31.2922 17.26L31.3589 17.3537L31.4245 17.4482L31.4892 17.5434L31.553 17.6394L31.6158 17.7359L31.6777 17.8333L31.7387 17.9313L31.7987 18.0299L31.8578 18.1292L31.9157 18.2292L31.9728 18.3298L32.0289 18.4311L32.0839 18.533L32.1379 18.6355L32.191 18.7386L32.2429 18.8424L32.2939 18.9467L32.3439 19.0516L32.3927 19.157L32.4405 19.2631L32.4873 19.3696L32.5331 19.4768L32.5777 19.5844L32.6213 19.6926L32.6638 19.8013L32.7051 19.9104L32.7454 20.0201L32.7846 20.1302L32.8227 20.2408L32.8597 20.3519L32.8955 20.4634L32.9303 20.5753L32.9639 20.6877L32.9964 20.8005L33.0278 20.9137L33.0579 21.0273L33.087 21.1412L33.1148 21.2556L33.1416 21.3702L33.1672 21.4853L33.1916 21.6006L33.2148 21.7163L33.2368 21.8323L33.2577 21.9487L33.2774 22.0653L33.2959 22.1821L33.3132 22.2993L33.3293 22.4166L33.3442 22.5342L33.358 22.6522L33.3705 22.7703L33.3818 22.8886L33.3919 23.0071L33.4008 23.1258L33.4085 23.2446L33.4149 23.3636L33.4201 23.4828L33.4241 23.6021L33.4269 23.7215L33.4285 23.8411L33.4288 23.9608L33.4278 24.0805L33.4257 24.2003L33.4223 24.3201L33.4177 24.4401L33.4118 24.56L33.4047 24.68L33.3964 24.8001L33.3868 24.9201L33.3759 25.0401L33.3639 25.1601L33.3505 25.28L33.336 25.4L33.3202 25.5198L33.3031 25.6395L33.2848 25.7592L33.2653 25.8788L33.2445 25.9983L33.2224 26.1177L33.1992 26.2369L33.1746 26.356L33.1488 26.475L33.1218 26.5937L33.0936 26.7123L33.0641 26.8306L33.0333 26.9489L33.0013 27.0668L32.9681 27.1845L32.9337 27.3019L32.898 27.4192L32.8611 27.5362L32.8228 27.6529L32.7835 27.7692L32.7428 27.8852L32.7011 28.001L32.658 28.1164L32.6137 28.2314L32.5682 28.3462L32.5216 28.4605L32.4737 28.5746L32.4245 28.6881L32.3742 28.8013L32.3227 28.9141L32.27 29.0264L32.2161 29.1382L32.161 29.2497L32.1046 29.3606L32.0472 29.4712L31.9885 29.5811L31.9287 29.6906L31.8677 29.7996L31.8056 29.908L31.7423 30.0159L31.6778 30.1233L31.6122 30.2301L31.5455 30.3364L31.4775 30.442L31.4085 30.5471L31.3383 30.6514L31.2671 30.7553L31.1947 30.8585L31.1212 30.961L31.0465 31.0629L30.9708 31.1642L30.894 31.2648L30.8161 31.3646L30.7371 31.4637L30.657 31.5622L30.5759 31.6599L30.4937 31.757L30.4105 31.8532L30.3261 31.9487L30.2408 32.0434L30.1544 32.1374L30.067 32.2306L29.9787 32.323L29.8893 32.4145L29.7989 32.5053L29.7074 32.5952L29.615 32.6843L29.5216 32.7725L29.4273 32.8598L29.332 32.9464L29.2356 33.0319L29.1385 33.1167L29.0403 33.2006L28.9412 33.2834L28.8412 33.3655L28.7403 33.4465L28.6384 33.5266L28.5357 33.6058L28.4322 33.684L28.3277 33.7612L28.2223 33.8375L28.1162 33.9129L28.0092 33.9871L27.9013 34.0605L27.7925 34.1327L27.683 34.204L27.5727 34.2742L27.4617 34.3434L27.3497 34.4115L27.2371 34.4786L27.1236 34.5446L27.0095 34.6095L26.8945 34.6734L26.7788 34.7362L26.6624 34.7979L26.5453 34.8584L26.4275 34.9179L26.309 34.9762L26.1899 35.0334L26.07 35.0895L25.9495 35.1444L25.8283 35.1982L25.7066 35.2508L25.5842 35.3022L25.4612 35.3525L25.3376 35.4016L25.2134 35.4496L25.0887 35.4963L24.9633 35.5419L24.8375 35.5862L24.711 35.6293L24.5841 35.6712L24.4566 35.7119L24.3287 35.7513L24.2003 35.7896L24.0713 35.8265L23.942 35.8623L23.8121 35.8967L23.6819 35.9299L23.5512 35.9619L23.4201 35.9927L23.2885 36.0221L23.1567 36.0502L23.0243 36.0771L22.8917 36.1027L22.7587 36.1271L22.6254 36.1501L22.4917 36.1718L22.3578 36.1921L22.2236 36.2113L22.089 36.229L21.9542 36.2456L21.8192 36.2607L21.6838 36.2746L21.5483 36.2871L21.4126 36.2984L21.2767 36.3082L21.1405 36.3168L21.0042 36.324L20.8678 36.3298L20.7311 36.3343L20.5944 36.3375L20.4575 36.3394L20.3204 36.3399L20.1834 36.3391L20.0463 36.3368L19.9091 36.3333L19.7718 36.3284L19.6345 36.3221L19.4972 36.3145L19.3599 36.3055L19.2225 36.2953L19.0853 36.2835L18.948 36.2705L18.8107 36.2561L18.6736 36.2404L18.5365 36.2233L18.3994 36.2048L18.2626 36.1849L18.1258 36.1638L17.9892 36.1412L17.8526 36.1173L17.7163 36.0921L17.5802 36.0655L17.4442 36.0374L17.3084 36.0081L17.1729 35.9774L17.0376 35.9454L16.9025 35.9119L16.7677 35.8772L16.6331 35.8411L16.4988 35.8037L16.3649 35.7649L16.2313 35.7248L16.0979 35.6834L15.965 35.6405L15.8324 35.5964L15.7001 35.5509L15.5683 35.5042L15.4369 35.456L15.3058 35.4066L15.1752 35.3558L15.045 35.3038L14.9153 35.2503L14.786 35.1956L14.6573 35.1397L14.5291 35.0823L14.4013 35.0237L14.2741 34.9638L14.1474 34.9027L14.0212 34.8401L13.8956 34.7764L13.7707 34.7114L13.6462 34.6451L13.5225 34.5775L13.3993 34.5088L13.2767 34.4386L13.1548 34.3674L13.0335 34.2948L12.9129 34.221L12.793 34.146L12.6739 34.0697L12.5554 33.9923L12.4377 33.9135L12.3207 33.8336L12.2044 33.7526L12.0889 33.6704L11.9742 33.5869L11.8603 33.5022L11.747 33.4164L11.6348 33.3294L11.5233 33.2413L11.4127 33.1519L11.3029 33.0616L11.1939 32.9699L11.0858 32.8773L10.9787 32.7834L10.8723 32.6885L10.767 32.5925L10.6626 32.4954L10.5591 32.3972L10.4564 32.2979L10.3549 32.1975L10.2543 32.0962L10.1547 31.9937L10.056 31.8902L9.95827 31.7856L9.86172 31.6802L9.7661 31.5735L9.67151 31.466L9.57804 31.3574L9.4855 31.2479L9.3942 31.1374L9.30382 31.0258L9.21467 30.9134L9.12655 30.8L9.03957 30.6857L8.95371 30.5704L8.86889 30.4543L8.78529 30.3372L8.70293 30.2193L8.6216 30.1004L8.54151 29.9807L8.4626 29.8602L8.38488 29.7388L8.30835 29.6165L8.23304 29.4935L8.15895 29.3696L8.08609 29.2449L8.01447 29.1194L7.94409 28.9932L7.87497 28.8662L7.80712 28.7385L7.74053 28.6099L7.67523 28.4807L7.61122 28.3507L7.54851 28.22L7.48711 28.0887L7.42702 27.9566L7.36825 27.824L7.31081 27.6906L7.25471 27.5565L7.19995 27.4219L7.14656 27.2867L7.09451 27.1508L7.04383 27.0144L6.99452 26.8774L6.94659 26.7397L6.90005 26.6016L6.85491 26.4629L6.81115 26.3237L6.76881 26.1841L6.72788 26.0438L6.68837 25.9032L6.65027 25.762L6.61362 25.6203L6.57839 25.4783L6.54459 25.3358L6.51226 25.1929L6.48136 25.0496L6.45192 24.9059L6.42394 24.7619L6.39742 24.6174L6.37238 24.4726L6.34881 24.3275L6.32671 24.1822L6.3061 24.0365L6.28697 23.8905L6.26934 23.7441L6.2532 23.5976L6.23855 23.4509L6.2254 23.3039L6.21376 23.1566L6.20362 23.0093L6.19498 22.8616L6.18787 22.7139L6.18226 22.566L6.17818 22.418L6.17561 22.2698L6.17456 22.1214L6.17504 21.9731L6.17704 21.8246L6.18058 21.6761L6.18562 21.5275L6.19222 21.3788L6.20034 21.2303L6.20998 21.0816L6.22117 20.933L6.23388 20.7843L6.24813 20.6359L6.26392 20.4873L6.28124 20.3389L6.30009 20.1905L6.32048 20.0423L6.34241 19.8941L6.36587 19.7462L6.39085 19.5983L6.41738 19.4507L6.44544 19.3031L6.47503 19.1558L6.50615 19.0087L6.5388 18.8618L6.57298 18.7152L6.60868 18.5688L6.6459 18.4226L6.68465 18.2768L6.72492 18.1313L6.76671 17.9861L6.81001 17.8412L6.85482 17.6966L6.90115 17.5524L6.94899 17.4086L6.99832 17.2652L7.04916 17.1222L7.1015 16.9796L7.15533 16.8374L7.21064 16.6957L7.26745 16.5544L7.32574 16.4136L7.38551 16.2734L7.44675 16.1335L7.50947 15.9943L7.57364 15.8556L7.63928 15.7174L7.70637 15.5799L7.77493 15.4429L7.84491 15.3065L7.91634 15.1707L7.9892 15.0355L8.0635 14.901L8.13922 14.7672L8.21634 14.6339L8.29489 14.5015L8.37484 14.3697L8.45618 14.2386L8.53893 14.1082L8.62304 13.9785L8.70859 13.8497L8.79537 13.7216L8.88369 13.5943L8.97325 13.4677L9.06414 13.342L9.15648 13.2171L9.25004 13.093L9.34505 12.9699L9.44129 12.8475L9.53887 12.7261L9.63768 12.6056L9.73782 12.4859L9.83931 12.3671L9.94203 12.2493L10.046 12.1325L10.1513 12.0166L10.2577 11.9017L10.3654 11.7877L10.4744 11.6747L10.5846 11.5629L10.6959 11.4519L10.8085 11.342L10.9223 11.2332L11.0373 11.1254L11.1534 11.0187L11.2707 10.913L11.3891 10.8086L11.5086 10.7051L11.6293 10.6028L11.7512 10.5016L11.874 10.4016L11.998 10.3027L12.1232 10.205L12.2493 10.1085L12.3765 10.0131L12.5048 9.91896L12.6341 9.82601L12.7644 9.73429L12.8958 9.64381L13.0281 9.55456L13.1613 9.46665L13.2957 9.37987L13.4309 9.29443L13.5672 9.21026L13.7043 9.12737L13.8424 9.0458L13.9813 8.96553L14.1213 8.88659L14.262 8.80897L14.4036 8.73271L14.5461 8.65779L14.6895 8.58423L14.8336 8.51204L14.9786 8.44123L15.1244 8.3718L15.271 8.30378L15.4184 8.23715L15.5665 8.17193L15.7154 8.10814L15.865 8.04578L16.0153 7.98485L16.1663 7.92537L16.318 7.86733L16.4704 7.81076L16.6235 7.75566L16.7772 7.70203L16.9316 7.64988L17.0865 7.59922L17.242 7.55006L17.3982 7.50239L17.5549 7.45624L17.7122 7.4116L17.8699 7.36848L18.0283 7.32689L18.1871 7.28683L18.3465 7.24831L18.5063 7.21135L18.6666 7.17592L18.8273 7.14205L18.9884 7.10974L19.15 7.07901L19.312 7.04984L19.4743 7.02224L19.6371 6.99623L19.8002 6.9718L19.9636 6.94896L20.1272 6.92771L20.1883 6.92039ZM20.2574 12.7494L20.2103 8.7762L20.0761 8.79495L19.9319 8.81658L19.7875 8.83964L19.6441 8.86402L19.5005 8.88989L19.3575 8.91708L19.2149 8.94568L19.0728 8.97561L18.931 9.00696L18.7895 9.0397L18.6485 9.07378L18.508 9.10921L18.3677 9.14607L18.2329 9.18287L18.0892 9.22369L17.9505 9.2645L17.8124 9.30666L17.6751 9.35005L17.538 9.39488L17.4015 9.44105L17.2655 9.48845L17.1303 9.53708L16.9956 9.58716L16.8616 9.63836L16.728 9.69101L16.5955 9.74478L16.4629 9.8L16.3314 9.85634L16.2005 9.91392L16.0706 9.97274L15.9409 10.0329L15.812 10.0943L15.6842 10.1567L15.5566 10.2205L15.4303 10.2854L15.3042 10.3517L15.1794 10.4189L15.0548 10.4877L14.9314 10.5572L14.8088 10.628L14.6869 10.7001L14.5659 10.7732L14.4455 10.8476L14.3263 10.9229L14.2076 10.9995L14.0901 11.0771L13.9734 11.1558L13.8575 11.2357L13.7424 11.3167L13.6286 11.3984L13.5154 11.4816L13.4031 11.5657L13.2918 11.6509L13.1816 11.7369L13.0721 11.8242L12.9638 11.9123L12.8565 12.0015L12.75 12.0919L12.6448 12.1829L12.5403 12.2751L12.4369 12.3683L12.3346 12.4622L12.2334 12.5571L12.1329 12.6532L12.0339 12.7498L11.9358 12.8475L11.8387 12.9462L11.7427 13.0456L11.6478 13.1461L11.5541 13.2473L11.4614 13.3493L11.3698 13.4522L11.2792 13.556L11.1902 13.6604L11.1019 13.7658L11.0149 13.872L10.929 13.9788L10.8444 14.0864L10.7607 14.195L10.6783 14.3041L10.5971 14.414L10.5171 14.5246L10.4382 14.636L10.3607 14.7478L10.2843 14.8605L10.2091 14.9739L10.135 15.088L10.0623 15.2025L9.99087 15.3178L9.92054 15.4339L9.85144 15.5502L9.78368 15.6674L9.71706 15.7851L9.65187 15.9031L9.58781 16.022L9.52488 16.1415L9.4635 16.2612L9.40325 16.3817L9.34433 16.5026L9.28665 16.6238L9.2303 16.7457L9.17519 16.868L9.12141 16.9908L9.06887 17.1139L9.01777 17.2375L8.9679 17.3615L8.91927 17.4861L8.87197 17.6109L8.82611 17.736L8.78139 17.8617L8.7382 17.9874L8.69615 18.1137L8.65553 18.2402L8.61615 18.3671L8.57821 18.4942L8.54151 18.6216L8.50624 18.7492L8.47221 18.8772L8.43956 19.0053L8.40825 19.1338L8.37829 19.2624L8.34965 19.3911L8.32235 19.5202L8.29643 19.6493L8.27183 19.7785L8.24857 19.9081L8.22668 20.0377L8.2061 20.1674L8.18691 20.2971L8.16903 20.427L8.15251 20.557L8.13734 20.6871L8.12351 20.8171L8.11102 20.9473L8.09989 21.0775L8.0901 21.2076L8.08165 21.3378L8.07453 21.468L8.06877 21.5981L8.06434 21.7281L8.06125 21.8581L8.0595 21.9881L8.05908 22.118L8.06 22.2478L8.06225 22.3774L8.06583 22.507L8.07072 22.6363L8.07695 22.7657L8.0845 22.8948L8.09336 23.0237L8.10355 23.1525L8.11505 23.281L8.12786 23.4094L8.14197 23.5375L8.15739 23.6654L8.17412 23.7931L8.19213 23.9204L8.21145 24.0476L8.23205 24.1742L8.25394 24.3008L8.27711 24.4271L8.30155 24.5528L8.32728 24.6785L8.35426 24.8036L8.38252 24.9285L8.41201 25.0528L8.4428 25.1769L8.47482 25.3006L8.50809 25.4239L8.54253 25.5467L8.57831 25.6691L8.61523 25.7911L8.65348 25.9126L8.69286 26.0338L8.73347 26.1543L8.77532 26.2742L8.8183 26.3938L8.86251 26.5129L8.90796 26.6314L8.95454 26.7494L9.00224 26.8668L9.05119 26.9837L9.10126 27.1L9.15257 27.2157L9.2049 27.3308L9.25847 27.4453L9.31318 27.5592L9.3689 27.6725L9.42587 27.7851L9.48386 27.8972L9.54298 28.0085L9.60323 28.1192L9.66451 28.2292L9.72693 28.3385L9.79037 28.4471L9.85494 28.5549L9.92054 28.6622L9.98717 28.7686L10.0548 28.8743L10.1236 28.9794L10.1932 29.0834L10.2641 29.187L10.3357 29.2896L10.4085 29.3915L10.4822 29.4925L10.557 29.5928L10.6327 29.6922L10.7094 29.7909L10.7869 29.8887L10.8655 29.9857L10.9449 30.0818L11.0253 30.1771L11.1067 30.2714L11.1889 30.3651L11.272 30.4576L11.356 30.5494L11.4408 30.6402L11.5266 30.7302L11.6132 30.8192L11.7007 30.9074L11.7889 30.9945L11.878 31.0808L11.968 31.1662L12.0586 31.2505L12.1502 31.334L12.2424 31.4163L12.3355 31.4977L12.4294 31.5783L12.524 31.6577L12.6193 31.7363L12.7153 31.8137L12.8121 31.8902L12.9095 31.9657L13.0077 32.0402L13.1066 32.1136L13.2061 32.186L13.3062 32.2574L13.4071 32.3277L13.5086 32.397L13.6108 32.4653L13.7135 32.5324L13.8168 32.5985L13.9208 32.6636L14.0252 32.7276L14.1303 32.7905L14.236 32.8523L14.3421 32.913L14.449 32.9726L14.5561 33.0311L14.664 33.0886L14.7722 33.1449L14.8809 33.2001L14.9902 33.2542L15.1 33.3072L15.2102 33.3591L15.3207 33.4098L15.4318 33.4595L15.5432 33.5079L15.6551 33.5552L15.7673 33.6015L15.88 33.6465L15.9929 33.6904L16.1063 33.7332L16.2201 33.7748L16.3341 33.8153L16.4484 33.8546L16.5632 33.8929L16.6781 33.9298L16.7934 33.9657L16.909 34.0003L17.0247 34.0338L17.1407 34.0662L17.257 34.0974L17.3735 34.1275L17.4902 34.1563L17.6071 34.1839L17.7242 34.2105L17.8415 34.2359L17.959 34.26L18.0765 34.283L18.1943 34.3048L18.312 34.3254L18.4301 34.345L18.5481 34.3632L18.6663 34.3803L18.7845 34.3963L18.9028 34.4111L19.0211 34.4246L19.1394 34.4371L19.2579 34.4483L19.3763 34.4584L19.4948 34.4672L19.6132 34.475L19.7316 34.4815L19.8499 34.487L19.9684 34.4912L20.0866 34.4943L20.2048 34.4961L20.3229 34.4968L20.441 34.4964L20.5589 34.4948L20.6767 34.4921L20.7943 34.4882L20.912 34.4832L21.0293 34.4769L21.1465 34.4696L21.2635 34.461L21.3804 34.4514L21.497 34.4406L21.6135 34.4287L21.7298 34.4156L21.8458 34.4014L21.9616 34.3861L22.077 34.3697L22.1923 34.3522L22.3073 34.3334L22.4218 34.3137L22.5362 34.2927L22.6503 34.2707L22.764 34.2477L22.8775 34.2234L22.9904 34.1981L23.1031 34.1718L23.2154 34.1443L23.3273 34.1158L23.4389 34.0862L23.55 34.0554L23.6608 34.0236L23.7711 33.9908L23.8809 33.957L23.9903 33.9221L24.0994 33.8861L24.2079 33.8491L24.316 33.811L24.4235 33.7719L24.5305 33.7318L24.6371 33.6907L24.7431 33.6486L24.8487 33.6054L24.9537 33.5613L25.058 33.5161L25.162 33.4701L25.2652 33.423L25.368 33.3748L25.4702 33.3258L25.5716 33.2759L25.6728 33.2248L25.773 33.173L25.8729 33.1201L25.9718 33.0664L26.0703 33.0117L26.1682 32.9561L26.2652 32.8995L26.3618 32.842L26.4576 32.7837L26.5526 32.7245L26.6472 32.6644L26.7408 32.6035L26.8338 32.5416L26.9263 32.4788L27.0178 32.4152L27.1085 32.351L27.1987 32.2856L27.288 32.2197L27.3766 32.1527L27.4645 32.085L27.5513 32.0166L27.6378 31.9472L27.7233 31.8771L27.8078 31.8063L27.8919 31.7344L27.9748 31.6622L28.057 31.5892L28.1386 31.515L28.219 31.4406L28.2988 31.3652L28.3778 31.2891L28.4557 31.2124L28.5329 31.1349L28.6093 31.0568L28.6848 30.9779L28.7593 30.8984L28.833 30.8182L28.9059 30.7374L28.9776 30.6561L29.0488 30.5738L29.1188 30.4911L29.1879 30.4079L29.2563 30.3237L29.3235 30.2394L29.39 30.1542L29.4555 30.0685L29.52 29.9822L29.5836 29.8954L29.6461 29.8082L29.7079 29.7201L29.7685 29.6318L29.8283 29.5428L29.8872 29.4533L29.9448 29.3635L30.0017 29.273L30.0576 29.182L30.1125 29.0907L30.1663 28.9989L30.2193 28.9065L30.271 28.814L30.322 28.7207L30.3719 28.6272L30.4206 28.5333L30.4687 28.4387L30.5153 28.3443L30.5613 28.2489L30.6059 28.1538L30.6499 28.0577L30.6925 27.9617L30.7343 27.865L30.7751 27.7683L30.8146 27.6713L30.8533 27.5738L30.8909 27.476L30.9273 27.3782L30.963 27.2798L30.9974 27.1813L31.0308 27.0826L31.0632 26.9836L31.0945 26.8843L31.1249 26.7849L31.1541 26.6853L31.1822 26.5854L31.2093 26.4854L31.2354 26.3852L31.2604 26.2848L31.2843 26.1845L31.3073 26.0836L31.3291 25.9829L31.3499 25.882L31.3696 25.7811L31.3883 25.68L31.4059 25.5786L31.4224 25.4775L31.4379 25.3761L31.4523 25.2746L31.4657 25.1733L31.478 25.0719L31.4894 24.9701L31.4995 24.869L31.5088 24.7671L31.5169 24.6656L31.5239 24.5643L31.53 24.4628L31.5349 24.3614L31.5388 24.2601L31.5417 24.1585L31.5434 24.0575L31.5443 23.9562L31.5439 23.8551L31.5427 23.754L31.5404 23.6533L31.537 23.5525L31.5325 23.4518L31.5271 23.3516L31.5206 23.251L31.5131 23.1508L31.5047 23.051L31.4951 22.951L31.4845 22.8516L31.4729 22.7519L31.4604 22.6528L31.4468 22.5538L31.4322 22.4549L31.4166 22.3564L31.4 22.2582L31.3824 22.1602L31.3638 22.0625L31.3442 21.9647L31.3236 21.8677L31.3021 21.7709L31.2796 21.6743L31.2561 21.5778L31.2317 21.4822L31.2062 21.3863L31.1799 21.2911L31.1525 21.1961L31.1242 21.1017L31.095 21.0075L31.0648 20.9136L31.0338 20.8203L31.0018 20.7274L30.9687 20.6345L30.9349 20.5425L30.9001 20.4507L30.8644 20.3595L30.8278 20.2685L30.7903 20.1779L30.7519 20.0881L30.7125 19.9985L30.6724 19.9095L30.6314 19.8211L30.5895 19.7329L30.5466 19.6452L30.5031 19.5583L30.4585 19.4716L30.4132 19.3858L30.3671 19.3004L30.32 19.2152L30.2723 19.131L30.2235 19.0471L30.1741 18.9639L30.1237 18.881L30.0728 18.7991L30.0208 18.7173L29.9682 18.6365L29.9148 18.5562L29.8606 18.4765L29.8055 18.3973L29.7497 18.3188L29.6934 18.2411L29.636 18.1636L29.5781 18.0871L29.5193 18.0112L29.4601 17.936L29.3998 17.8612L29.339 17.7873L29.2774 17.714L29.2152 17.6413L29.1523 17.5695L29.0886 17.4982L29.0244 17.4278L28.9594 17.3578L28.8941 17.2889L28.8276 17.2204L28.7609 17.1528L28.6932 17.0857L28.6252 17.0196L28.5566 16.9542L28.4873 16.8894L28.4173 16.8253L28.3467 16.7622L28.2757 16.6998L28.2038 16.6379L28.1319 16.5772L28.059 16.5169L27.9857 16.4575L27.9119 16.399L27.8375 16.341L27.7626 16.2841L27.6875 16.228L27.6114 16.1725L27.5348 16.1177L27.4582 16.0641L27.3805 16.011L27.303 15.9591L27.2248 15.9077L27.146 15.8571L27.0667 15.8073L26.9873 15.7586L26.9071 15.7104L26.8268 15.6634L26.7458 15.6169L26.6649 15.5715L26.5833 15.5269L26.5012 15.483L26.4188 15.44L26.3363 15.3981L26.2532 15.3567L26.1697 15.3163L26.0861 15.2768L26.0023 15.2383L25.9176 15.2003L25.8333 15.1635L25.7484 15.1276L25.663 15.0923L25.5776 15.058L25.492 15.0247L25.4061 14.9922L25.3196 14.9605L25.2333 14.9298L25.1465 14.8999L25.0596 14.8709L24.9727 14.8428L24.8854 14.8157L24.7981 14.7894L24.7101 14.7639L24.6224 14.7394L24.5345 14.7158L24.4463 14.693L24.3581 14.6711L24.2695 14.6502L24.1811 14.6301L24.0926 14.611L24.0038 14.5927L23.9148 14.5752L23.8262 14.5588L23.7371 14.5432L23.6481 14.5285L23.5588 14.5146L23.4699 14.5018L23.3804 14.4897L23.2915 14.4786L23.2022 14.4684L23.113 14.459L23.0238 14.4506L22.9345 14.443L22.8455 14.4363L22.7561 14.4305L22.667 14.4256L22.5782 14.4216L22.4887 14.4184L22.4 14.4161L22.3112 14.4148L22.2224 14.4143L22.1618 14.4145L22.2077 18.2964L22.2352 18.2965L22.2862 18.2972L22.3373 18.2984L22.3885 18.3001L22.4397 18.3025L22.491 18.3052L22.5423 18.3085L22.5937 18.3124L22.6451 18.3168L22.6966 18.3218L22.7481 18.3272L22.7997 18.3332L22.8513 18.3398L22.9028 18.3469L22.9544 18.3545L23.006 18.3627L23.0576 18.3714L23.1091 18.3807L23.1608 18.3906L23.2123 18.4009L23.2638 18.4119L23.3153 18.4233L23.3668 18.4353L23.4181 18.4478L23.4695 18.4609L23.5208 18.4746L23.5721 18.4888L23.6233 18.5035L23.6744 18.5188L23.7254 18.5346L23.7763 18.5511L23.8272 18.568L23.8778 18.5855L23.9285 18.6035L23.979 18.6221L24.0294 18.6412L24.0797 18.6609L24.1299 18.6811L24.1798 18.7019L24.2297 18.7232L24.2795 18.7451L24.329 18.7675L24.3785 18.7904L24.4277 18.814L24.4768 18.8379L24.5257 18.8625L24.5743 18.8877L24.6229 18.9133L24.6712 18.9395L24.7193 18.9663L24.7672 18.9935L24.8149 19.0213L24.8623 19.0495L24.9096 19.0784L24.9566 19.1078L25.0034 19.1378L25.0499 19.1681L25.0962 19.199L25.1422 19.2306L25.188 19.2626L25.2334 19.2951L25.2787 19.3281L25.3236 19.3616L25.3682 19.3956L25.4125 19.4302L25.4567 19.4653L25.5004 19.5008L25.5437 19.5368L25.5869 19.5734L25.6297 19.6104L25.6722 19.648L25.7143 19.686L25.7561 19.7246L25.7975 19.7635L25.8385 19.803L25.8793 19.843L25.9197 19.8834L25.9597 19.9243L25.9993 19.9657L26.0385 20.0075L26.0774 20.0499L26.1158 20.0927L26.154 20.1358L26.1916 20.1795L26.2288 20.2237L26.2657 20.2682L26.3021 20.3132L26.3381 20.3587L26.3737 20.4045L26.4089 20.4509L26.4436 20.4976L26.4779 20.5448L26.5116 20.5923L26.545 20.6403L26.5779 20.6887L26.6103 20.7376L26.6423 20.7867L26.6738 20.8364L26.7048 20.8863L26.7353 20.9367L26.7654 20.9875L26.7949 21.0386L26.824 21.0901L26.8524 21.1421L26.8805 21.1943L26.9081 21.2469L26.935 21.2999L26.9615 21.3531L26.9874 21.4068L27.0128 21.4609L27.0377 21.5152L27.0621 21.5699L27.086 21.6249L27.1092 21.6802L27.1319 21.7358L27.154 21.7918L27.1756 21.848L27.1967 21.9046L27.2171 21.9614L27.237 22.0186L27.2563 22.076L27.275 22.1337L27.2931 22.1916L27.3107 22.2498L27.3277 22.3083L27.344 22.3672L27.3599 22.4261L27.3751 22.4853L27.3896 22.5448L27.4036 22.6046L27.4169 22.6644L27.4297 22.7247L27.4418 22.785L27.4532 22.8455L27.4641 22.9064L27.4744 22.9673L27.4841 23.0284L27.493 23.0898L27.5013 23.1513L27.5091 23.213L27.5162 23.2749L27.5226 23.3369L27.5284 23.399L27.5335 23.4613L27.5381 23.5238L27.5419 23.5863L27.545 23.649L27.5475 23.7119L27.5495 23.7748L27.5506 23.8378L27.5512 23.9009L27.551 23.9641L27.5503 24.0274L27.5488 24.0909L27.5467 24.1543L27.5439 24.2178L27.5404 24.2814L27.5363 24.345L27.5315 24.4087L27.5259 24.4724L27.5198 24.5362L27.513 24.5999L27.5054 24.6637L27.4971 24.7275L27.4883 24.7914L27.4787 24.8551L27.4684 24.9189L27.4574 24.9826L27.4458 25.0464L27.4335 25.1101L27.4205 25.1738L27.4068 25.2374L27.3924 25.3009L27.3773 25.3645L27.3615 25.4279L27.3451 25.4914L27.328 25.5546L27.3101 25.6178L27.2916 25.6809L27.2724 25.7439L27.2525 25.8068L27.232 25.8695L27.2107 25.9323L27.1888 25.9948L27.166 26.0571L27.1427 26.1194L27.1187 26.1814L27.0941 26.2434L27.0687 26.3051L27.0427 26.3667L27.0159 26.4281L26.9885 26.4894L26.9604 26.5503L26.9316 26.6111L26.9021 26.6718L26.8721 26.7321L26.8412 26.7923L26.8098 26.8522L26.7776 26.9118L26.7448 26.9713L26.7114 27.0305L26.6772 27.0894L26.6424 27.1481L26.607 27.2064L26.5708 27.2646L26.5341 27.3224L26.4967 27.3799L26.4585 27.4372L26.4199 27.494L26.3805 27.5507L26.3405 27.6069L26.2998 27.6628L26.2586 27.7185L26.2166 27.7737L26.174 27.8286L26.1308 27.8832L26.087 27.9374L26.0426 27.9912L25.9976 28.0446L25.9519 28.0977L25.9056 28.1503L25.8587 28.2025L25.8112 28.2545L25.7631 28.3059L25.7144 28.3569L25.6651 28.4076L25.6152 28.4578L25.5647 28.5074L25.5137 28.5568L25.462 28.6056L25.4098 28.6539L25.357 28.7018L25.3037 28.7494L25.2498 28.7963L25.1953 28.8428L25.1403 28.8888L25.0846 28.9343L25.0285 28.9794L24.9719 29.0238L24.9147 29.0678L24.857 29.1113L24.7987 29.1543L24.74 29.1966L24.6807 29.2385L24.6209 29.2799L24.5606 29.3206L24.4998 29.3609L24.4385 29.4005L24.3767 29.4397L24.3144 29.4782L24.2517 29.5162L24.1885 29.5535L24.1248 29.5903L24.0607 29.6265L23.996 29.6621L23.931 29.6972L23.8655 29.7315L23.7996 29.7653L23.7332 29.7984L23.6664 29.831L23.5992 29.8629L23.5315 29.8942L23.4636 29.9248L23.3951 29.9547L23.3263 29.9841L23.2571 30.0128L23.1875 30.0408L23.1175 30.0681L23.0472 30.0949L22.9764 30.1209L22.9054 30.1463L22.834 30.1709L22.7622 30.1949L22.6902 30.2182L22.6178 30.2408L22.5451 30.2627L22.472 30.284L22.3987 30.3044L22.325 30.3243L22.2511 30.3433L22.1769 30.3617L22.1023 30.3793L22.0276 30.3962L21.9525 30.4124L21.8773 30.4279L21.8017 30.4426L21.7259 30.4566L21.6499 30.4699L21.5736 30.4824L21.4972 30.4941L21.4205 30.5051L21.3437 30.5154L21.2666 30.525L21.1894 30.5337L21.112 30.5416L21.0343 30.5489L20.9566 30.5553L20.8787 30.5611L20.8005 30.5659L20.7224 30.5701L20.644 30.5735L20.5656 30.5761L20.4869 30.5778L20.4083 30.5788L20.3295 30.5791L20.2506 30.5786L20.1717 30.5773L20.0926 30.5751L20.0135 30.5723L19.9344 30.5686L19.8551 30.564L19.7758 30.5588L19.6965 30.5527L19.6173 30.5458L19.5379 30.5381L19.4586 30.5297L19.3792 30.5203L19.2999 30.5103L19.2206 30.4994L19.1413 30.4877L19.062 30.4752L18.9829 30.4619L18.9037 30.4478L18.8246 30.4329L18.7455 30.4173L18.6666 30.4008L18.5877 30.3835L18.509 30.3653L18.4303 30.3464L18.3516 30.3267L18.2732 30.3062L18.1949 30.2848L18.1167 30.2627L18.0388 30.2397L17.9608 30.216L17.8831 30.1914L17.8056 30.1661L17.7281 30.14L17.651 30.1131L17.574 30.0853L17.4972 30.0567L17.4207 30.0274L17.3443 29.9973L17.2682 29.9663L17.1923 29.9347L17.1168 29.9022L17.0414 29.8689L16.9662 29.8348L16.8915 29.8L16.8168 29.7643L16.7426 29.7279L16.6687 29.6907L16.595 29.6527L16.5217 29.614L16.4487 29.5745L16.376 29.5342L16.3038 29.4932L16.2317 29.4513L16.1601 29.4087L16.0889 29.3655L16.018 29.3213L15.9475 29.2765L15.8774 29.231L15.8076 29.1846L15.7383 29.1375L15.6696 29.0897L15.6011 29.0412L15.533 28.9919L15.4655 28.9418L15.3983 28.8911L15.3317 28.8397L15.2655 28.7875L15.1998 28.7346L15.1345 28.6811L15.0697 28.6268L15.0054 28.5718L14.9417 28.5161L14.8785 28.4597L14.8157 28.4026L14.7535 28.3449L14.6918 28.2865L14.6308 28.2273L14.5701 28.1676L14.5101 28.1071L14.4507 28.0461L14.3918 27.9843L14.3335 27.922L14.2758 27.8588L14.2188 27.7952L14.1622 27.7309L14.1064 27.6659L14.0511 27.6004L13.9964 27.5342L13.9424 27.4674L13.889 27.4L13.8363 27.3321L13.7841 27.2635L13.7327 27.1943L13.682 27.1246L13.632 27.0542L13.5825 26.9833L13.5338 26.9118L13.4857 26.8399L13.4384 26.7673L13.3919 26.6942L13.3459 26.6206L13.3008 26.5464L13.2562 26.4717L13.2126 26.3965L13.1696 26.3207L13.1273 26.2445L13.0858 26.1678L13.0451 26.0906L13.0051 26.0129L12.9658 25.9347L12.9273 25.8562L12.8897 25.777L12.8528 25.6975L12.8167 25.6175L12.7814 25.5371L12.7469 25.4562L12.7131 25.375L12.6802 25.2932L12.6482 25.2112L12.6169 25.1286L12.5866 25.0457L12.557 24.9625L12.5282 24.8789L12.5002 24.7949L12.4732 24.7104L12.4469 24.6257L12.4215 24.5407L12.397 24.4552L12.3733 24.3695L12.3506 24.2834L12.3286 24.1971L12.3076 24.1104L12.2875 24.0235L12.2681 23.9362L12.2497 23.8487L12.2323 23.7609L12.2156 23.6729L12.1999 23.5846L12.1851 23.496L12.1712 23.4073L12.1581 23.3183L12.146 23.2291L12.1349 23.1397L12.1246 23.0501L12.1152 22.9602L12.1068 22.8703L12.0993 22.7801L12.0927 22.6898L12.0871 22.5993L12.0823 22.5087L12.0785 22.4181L12.0757 22.3272L12.0738 22.2362L12.0729 22.1452L12.0728 22.054L12.0737 21.9627L12.0757 21.8714L12.0784 21.78L12.0822 21.6884L12.087 21.5969L12.0926 21.5054L12.0992 21.4138L12.1068 21.3222L12.1153 21.2306L12.1248 21.139L12.1353 21.0474L12.1467 20.9557L12.159 20.8642L12.1724 20.7727L12.1867 20.6812L12.202 20.5898L12.2182 20.4984L12.2353 20.4071L12.2535 20.3159L12.2727 20.2248L12.2927 20.1338L12.3137 20.0429L12.3357 19.9522L12.3586 19.8615L12.3826 19.771L12.4075 19.6808L12.4333 19.5906L12.46 19.5005L12.4878 19.4108L12.5165 19.3211L12.5461 19.2316L12.5767 19.1425L12.6083 19.0535L12.6408 18.9647L12.6742 18.8762L12.7086 18.788L12.744 18.7L12.7803 18.6121L12.8175 18.5247L12.8557 18.4376L12.8948 18.3507L12.9348 18.2641L12.9759 18.1778L13.0177 18.092L13.0606 18.0063L13.1043 17.9211L13.149 17.8363L13.1946 17.7517L13.2411 17.6676L13.2885 17.5838L13.3369 17.5005L13.3861 17.4176L13.4363 17.335L13.4873 17.2529L13.5393 17.1712L13.5922 17.0899L13.6458 17.0091L13.7004 16.9288L13.756 16.8489L13.8123 16.7695L13.8696 16.6906L13.9277 16.6122L13.9866 16.5342L14.0464 16.4569L14.1071 16.38L14.1687 16.3037L14.2311 16.2278L14.2942 16.1527L14.3583 16.0779L14.4232 16.0038L14.4889 15.9303L14.5554 15.8573L14.6227 15.785L14.6909 15.7132L14.7599 15.6421L14.8296 15.5715L14.9001 15.5016L14.9715 15.4323L15.0436 15.3637L15.1165 15.2958L15.1901 15.2284L15.2644 15.1618L15.3396 15.0958L15.4156 15.0306L15.4922 14.9659L15.5696 14.9021L15.6477 14.8389L15.7265 14.7764L15.806 14.7147L15.8863 14.6538L15.9672 14.5935L16.0489 14.534L16.1312 14.4753L16.2142 14.4173L16.2979 14.36L16.3823 14.3035L16.4672 14.2479L16.5529 14.1931L16.6393 14.139L16.7261 14.0858L16.8137 14.0333L16.9019 13.9817L16.9907 13.9309L17.0801 13.881L17.17 13.8318L17.2606 13.7836L17.3517 13.7362L17.4434 13.6896L17.5357 13.644L17.6285 13.5991L17.7219 13.5552L17.8157 13.5121L17.9101 13.47L18.005 13.4287L18.1005 13.3883L18.1965 13.3489L18.2928 13.3104L18.3898 13.2728L18.4872 13.2361L18.5849 13.2003L18.6832 13.1655L18.782 13.1316L18.8812 13.0987L18.9808 13.0667L19.0807 13.0357L19.1812 13.0056L19.282 12.9765L19.3831 12.9485L19.4847 12.9213L19.5866 12.8951L19.6889 12.8699L19.7915 12.8458L19.8946 12.8226L19.9978 12.8004L20.1014 12.7792L20.2053 12.7591L20.2574 12.7494ZM21.5343 20.2145L20.3492 20.4977L20.2796 14.6271L20.2238 14.6397L20.1397 14.6595L20.0557 14.6802L19.9723 14.7016L19.889 14.7238L19.8062 14.7468L19.7235 14.7708L19.6415 14.7952L19.5594 14.8207L19.4782 14.8467L19.3969 14.8738L19.3161 14.9016L19.2357 14.93L19.1556 14.9592L19.0762 14.9892L18.9969 15.02L18.9181 15.0515L18.8397 15.0836L18.7615 15.1168L18.6843 15.1503L18.607 15.1848L18.5305 15.2199L18.4541 15.2559L18.3785 15.2924L18.303 15.3297L18.2284 15.3676L18.154 15.4063L18.0802 15.4457L18.0069 15.4857L17.934 15.5264L17.8616 15.5678L17.79 15.6098L17.7184 15.6527L17.6476 15.6959L17.5775 15.74L17.5078 15.7846L17.4385 15.8299L17.3699 15.8759L17.3018 15.9225L17.2343 15.9696L17.1674 16.0173L17.1009 16.0657L17.0351 16.1147L16.9699 16.1643L16.9053 16.2145L16.8413 16.2651L16.778 16.3164L16.715 16.3683L16.6527 16.4208L16.5912 16.4737L16.5303 16.5273L16.4699 16.5812L16.4102 16.6358L16.351 16.691L16.2926 16.7467L16.2349 16.8027L16.1776 16.8595L16.1211 16.9165L16.0653 16.9742L16.0102 17.0322L15.9555 17.091L15.9017 17.1499L15.8486 17.2095L15.796 17.2695L15.7443 17.3298L15.6931 17.3907L15.6428 17.4518L15.593 17.5137L15.544 17.5757L15.4956 17.6383L15.448 17.7014L15.4011 17.7646L15.3548 17.8282L15.3094 17.8923L15.2645 17.9569L15.2204 18.0216L15.1771 18.0869L15.1346 18.1523L15.0927 18.2181L15.0515 18.2845L15.0112 18.3509L14.9714 18.4179L14.9325 18.4849L14.8943 18.5524L14.8568 18.6202L14.8202 18.6881L14.7842 18.7564L14.749 18.825L14.7145 18.894L14.6808 18.9629L14.6478 19.0324L14.6156 19.1019L14.5843 19.1717L14.5535 19.2417L14.5236 19.312L14.4945 19.3824L14.4661 19.4531L14.4386 19.524L14.4116 19.595L14.3856 19.6661L14.3603 19.7375L14.3358 19.8091L14.312 19.8808L14.289 19.9525L14.2668 20.0246L14.2453 20.0967L14.2247 20.1688L14.2048 20.2411L14.1855 20.3136L14.1672 20.3861L14.1497 20.4587L14.1328 20.5314L14.1168 20.6042L14.1015 20.6771L14.087 20.7499L14.0733 20.8228L14.0603 20.8959L14.0482 20.9688L14.0368 21.0418L14.0261 21.115L14.0162 21.1879L14.0071 21.2611L13.9988 21.334L13.9912 21.4071L13.9844 21.4803L13.9784 21.5532L13.9731 21.6262L13.9686 21.6992L13.9648 21.772L13.9618 21.8448L13.9595 21.9175L13.9581 21.9903L13.9573 22.0629L13.9574 22.1354L13.9581 22.2078L13.9596 22.2802L13.9619 22.3524L13.9649 22.4244L13.9686 22.4964L13.9731 22.5682L13.9784 22.6398L13.9843 22.7114L13.991 22.7828L13.9984 22.8541L14.0065 22.925L14.0154 22.996L14.0249 23.0665L14.0353 23.1372L14.0463 23.2074L14.058 23.2775L14.0705 23.3476L14.0836 23.4172L14.0975 23.4867L14.112 23.5558L14.1273 23.6249L14.1433 23.6936L14.1599 23.7621L14.1772 23.8302L14.1953 23.8984L14.2139 23.9659L14.2333 24.0335L14.2533 24.1005L14.274 24.1674L14.2954 24.234L14.3174 24.3001L14.3401 24.3662L14.3634 24.4318L14.3874 24.497L14.412 24.5621L14.4372 24.6268L14.4632 24.691L14.4897 24.755L14.5167 24.8185L14.5446 24.8819L14.573 24.9448L14.602 25.0073L14.6316 25.0694L14.6617 25.1311L14.6927 25.1927L14.7239 25.2535L14.7559 25.3141L14.7885 25.3744L14.8217 25.4341L14.8554 25.4935L14.8897 25.5526L14.9245 25.611L14.96 25.6691L14.9959 25.7268L15.0324 25.784L15.0695 25.8409L15.107 25.8972L15.1452 25.9532L15.1837 26.0085L15.2229 26.0636L15.2626 26.1181L15.3027 26.172L15.3435 26.2257L15.3846 26.2788L15.4263 26.3313L15.4684 26.3834L15.5111 26.4352L15.5541 26.4862L15.5978 26.5369L15.6418 26.587L15.6862 26.6366L15.7313 26.6857L15.7766 26.7342L15.8224 26.7824L15.8687 26.8299L15.9153 26.8769L15.9625 26.9234L16.01 26.9693L16.0579 27.0148L16.1062 27.0596L16.155 27.1039L16.2041 27.1477L16.2536 27.1909L16.3034 27.2336L16.3536 27.2757L16.4042 27.3173L16.4552 27.3583L16.5066 27.3987L16.5581 27.4385L16.6102 27.4778L16.6625 27.5165L16.7151 27.5547L16.7681 27.5922L16.8214 27.6292L16.8749 27.6656L16.9288 27.7014L16.9829 27.7366L17.0373 27.7712L17.0922 27.8054L17.1471 27.8387L17.2023 27.8716L17.2579 27.9039L17.3136 27.9354L17.3695 27.9665L17.4259 27.997L17.4824 28.0268L17.539 28.056L17.5959 28.0846L17.6532 28.1127L17.7103 28.14L17.768 28.1669L17.8257 28.1931L17.8835 28.2186L17.9417 28.2436L18 28.2679L18.0583 28.2917L18.1169 28.3148L18.1756 28.3372L18.2346 28.3591L18.2934 28.3804L18.3528 28.4011L18.4119 28.421L18.4712 28.4405L18.5307 28.4593L18.5904 28.4775L18.65 28.495L18.7098 28.5119L18.7697 28.5282L18.8296 28.5439L18.8896 28.5589L18.9496 28.5734L19.0097 28.5872L19.0698 28.6004L19.1301 28.613L19.1903 28.6249L19.2506 28.6364L19.3109 28.647L19.3712 28.6572L19.4316 28.6667L19.4919 28.6756L19.5521 28.6839L19.6124 28.6915L19.6727 28.6986L19.733 28.705L19.7933 28.7108L19.8535 28.716L19.9137 28.7207L19.9737 28.7247L20.0339 28.7281L20.0938 28.7308L20.1537 28.7331L20.2137 28.7346L20.2734 28.7357L20.333 28.7361L20.3926 28.7359L20.4521 28.7352L20.5116 28.7337L20.5709 28.7318L20.6299 28.7293L20.689 28.7261L20.7481 28.7224L20.8067 28.7181L20.8654 28.7133L20.9238 28.7078L20.9822 28.7018L21.0404 28.6952L21.0983 28.6881L21.1563 28.6804L21.2139 28.672L21.2712 28.6632L21.3287 28.6538L21.3858 28.6439L21.4426 28.6334L21.4994 28.6223L21.5559 28.6106L21.6121 28.5985L21.668 28.5859L21.7239 28.5726L21.7796 28.5588L21.8349 28.5446L21.89 28.5298L21.9448 28.5145L21.9996 28.4986L22.0539 28.4822L22.1078 28.4654L22.1619 28.4479L22.2153 28.43L22.2686 28.4117L22.3215 28.3928L22.3742 28.3733L22.4267 28.3534L22.4789 28.333L22.5306 28.3122L22.5821 28.2909L22.6333 28.269L22.6843 28.2467L22.7347 28.2239L22.7851 28.2007L22.8349 28.1771L22.8844 28.1529L22.9337 28.1283L22.9825 28.1033L23.0311 28.0778L23.0793 28.0518L23.1271 28.0255L23.1745 27.9988L23.2217 27.9715L23.2685 27.9439L23.3148 27.9158L23.3608 27.8873L23.4064 27.8584L23.4516 27.8292L23.4966 27.7995L23.541 27.7695L23.5851 27.7389L23.6288 27.7081L23.672 27.6769L23.7149 27.6453L23.7573 27.6133L23.7994 27.5809L23.841 27.5482L23.8824 27.5151L23.9231 27.4818L23.9635 27.4481L24.0034 27.4139L24.0429 27.3795L24.082 27.3447L24.1207 27.3096L24.159 27.2742L24.1966 27.2385L24.234 27.2024L24.2709 27.166L24.3074 27.1294L24.3434 27.0925L24.3789 27.0552L24.4139 27.0177L24.4487 26.9798L24.4827 26.9419L24.5166 26.9034L24.5498 26.8647L24.5825 26.826L24.615 26.7867L24.6466 26.7474L24.6781 26.7077L24.709 26.6679L24.7394 26.6278L24.7694 26.5874L24.7988 26.547L24.8278 26.5061L24.8564 26.4651L24.8844 26.4241L24.9119 26.3825L24.9391 26.341L24.9655 26.2992L24.9916 26.2573L25.0172 26.2151L25.0423 26.1728L25.067 26.1303L25.091 26.0876L25.1147 26.0449L25.1378 26.0018L25.1604 25.9588L25.1825 25.9155L25.2042 25.8721L25.2254 25.8286L25.2461 25.7848L25.2662 25.7411L25.2859 25.6972L25.305 25.6533L25.3237 25.6091L25.3418 25.565L25.3596 25.5205L25.3767 25.4764L25.3934 25.4315L25.4095 25.3874L25.4252 25.3426L25.4404 25.2978L25.455 25.2531L25.4692 25.2083L25.4829 25.1636L25.4961 25.1183L25.5087 25.0737L25.521 25.0284L25.5326 24.9837L25.5438 24.9385L25.5545 24.8933L25.5647 24.8483L25.5744 24.8035L25.5836 24.7581L25.5924 24.7131L25.6006 24.6678L25.6083 24.6229L25.6156 24.5779L25.6224 24.5328L25.6287 24.4876L25.6344 24.4426L25.6398 24.3978L25.6446 24.353L25.6489 24.3079L25.6528 24.2632L25.6562 24.2183L25.6591 24.1736L25.6616 24.129L25.6635 24.0845L25.665 24.0402L25.666 23.9955L25.6666 23.951L25.6667 23.9069L25.6663 23.8628L25.6655 23.8188L25.6641 23.7749L25.6624 23.7308L25.6601 23.6875L25.6575 23.6433L25.6544 23.6002L25.6508 23.5569L25.6468 23.5133L25.6422 23.4702L25.6374 23.4276L25.632 23.3843L25.6262 23.3419L25.6199 23.2992L25.6134 23.2572L25.6062 23.2147L25.5986 23.1726L25.5907 23.1308L25.5824 23.0892L25.5736 23.0474L25.5643 23.0062L25.5547 22.965L25.5447 22.924L25.5343 22.8834L25.5233 22.8425L25.5122 22.8024L25.5005 22.7619L25.4884 22.7221L25.476 22.6823L25.4631 22.6428L25.4499 22.6034L25.4362 22.5642L25.4223 22.5255L25.4079 22.4869L25.3931 22.4483L25.378 22.4102L25.3625 22.372L25.3467 22.3347L25.3304 22.2969L25.3139 22.2598L25.297 22.223L25.2797 22.1862L25.2621 22.1498L25.2441 22.1136L25.2258 22.0776L25.2072 22.042L25.1882 22.0067L25.169 21.9716L25.1493 21.9368L25.1293 21.9022L25.1091 21.868L25.0886 21.834L25.0676 21.8002L25.0464 21.767L25.0249 21.7339L25.0031 21.7011L24.981 21.6685L24.9587 21.6364L24.936 21.6044L24.913 21.5729L24.8898 21.5416L24.8663 21.5107L24.8426 21.48L24.8184 21.4496L24.7942 21.4197L24.7696 21.39L24.7448 21.3605L24.7197 21.3314L24.6945 21.3028L24.6689 21.2744L24.6431 21.2463L24.6171 21.2184L24.5909 21.1911L24.5644 21.1641L24.5376 21.1372L24.5108 21.1109L24.4837 21.0849L24.4564 21.0592L24.4286 21.0337L24.4011 21.0087L24.3731 20.9839L24.3451 20.9597L24.3167 20.9356L24.2882 20.912L24.2595 20.8887L24.2307 20.8658L24.2017 20.8432L24.1725 20.8208L24.1432 20.799L24.1137 20.7775L24.084 20.7563L24.0543 20.7355L24.0244 20.7149L23.9943 20.6949L23.9641 20.6751L23.9337 20.6557L23.9033 20.6367L23.8726 20.618L23.842 20.5997L23.8112 20.5818L23.7803 20.5642L23.7491 20.5469L23.7181 20.5301L23.6869 20.5135L23.6555 20.4974L23.6243 20.4816L23.5926 20.4661L23.5612 20.4511L23.5295 20.4365L23.4978 20.4221L23.466 20.4081L23.4341 20.3944L23.4024 20.3813L23.3703 20.3684L23.3382 20.3559L23.3063 20.3438L23.2742 20.3319L23.2421 20.3205L23.2099 20.3094L23.1777 20.2986L23.1457 20.2883L23.1134 20.2783L23.0811 20.2686L23.049 20.2593L23.0165 20.2504L22.9844 20.2419L22.9521 20.2336L22.9199 20.2257L22.8876 20.2182L22.8554 20.211L22.8231 20.2042L22.7909 20.1977L22.7588 20.1916L22.7268 20.1858L22.6945 20.1804L22.6626 20.1753L22.6303 20.1706L22.5985 20.1662L22.5665 20.1621L22.5346 20.1584L22.5029 20.155L22.471 20.152L22.4394 20.1492L22.4077 20.1469L22.3761 20.1448L22.3446 20.143L22.3131 20.1417L22.282 20.1407L22.2506 20.1399L22.2194 20.1394L22.1883 20.1393L22.1573 20.1397L22.1264 20.1402L22.0956 20.141L22.0649 20.1422L22.0345 20.1437L22.0038 20.1455L21.9736 20.1476L21.9434 20.1499L21.9132 20.1527L21.8833 20.1557L21.8533 20.159L21.8237 20.1626L21.7941 20.1665L21.7647 20.1707L21.7353 20.1752L21.7062 20.18L21.6771 20.185L21.6484 20.1903L21.6195 20.196L21.591 20.2019L21.5625 20.208L21.5343 20.2145Z" fill="#FEEE00"/>
</g>
</svg>
