<svg width="16" height="16" viewBox="0 0 16 16" fill="none" xmlns="http://www.w3.org/2000/svg">
<g id="vuesax/outline/arrow-3">
<g id="arrow-3">
<path id="Vector" d="M9.03316 4.97998C9.15983 4.97998 9.28651 4.93333 9.38651 4.83333L11.5132 2.70667L13.6399 4.83333C13.8332 5.02667 14.1532 5.02667 14.3465 4.83333C14.5398 4.64 14.5398 4.32 14.3465 4.12667L11.8665 1.64665C11.7732 1.55331 11.6465 1.5 11.5132 1.5C11.3798 1.5 11.2532 1.55331 11.1598 1.64665L8.67985 4.12667C8.48652 4.32 8.48652 4.64 8.67985 4.83333C8.77985 4.93333 8.9065 4.97998 9.03316 4.97998Z" fill="#8B8B8B"/>
<path id="Vector_2" d="M11.5133 14.5C11.7867 14.5 12.0133 14.2733 12.0133 14V2C12.0133 1.72667 11.7867 1.5 11.5133 1.5C11.24 1.5 11.0133 1.72667 11.0133 2V14C11.0133 14.2733 11.24 14.5 11.5133 14.5Z" fill="#8B8B8B"/>
<path id="Vector_3" d="M4.48001 14.5C4.61334 14.5 4.74003 14.4467 4.83336 14.3533L7.31334 11.8733C7.50668 11.68 7.50668 11.36 7.31334 11.1666C7.12001 10.9733 6.80001 10.9733 6.60668 11.1666L4.48001 13.2933L2.35338 11.1666C2.16005 10.9733 1.84001 10.9733 1.64668 11.1666C1.45334 11.36 1.45334 11.68 1.64668 11.8733L4.1267 14.3533C4.22003 14.4467 4.35334 14.5 4.48001 14.5Z" fill="#8B8B8B"/>
<path id="Vector_4" d="M4.48666 14.5C4.76 14.5 4.98666 14.2733 4.98666 14V2C4.98666 1.72667 4.76 1.5 4.48666 1.5C4.21333 1.5 3.98666 1.72667 3.98666 2V14C3.98666 14.2733 4.20666 14.5 4.48666 14.5Z" fill="#8B8B8B"/>
</g>
</g>
</svg>
