<svg width="17" height="16" viewBox="0 0 17 16" fill="none" xmlns="http://www.w3.org/2000/svg">
<g id="vuesax/outline/search-normal">
<g id="search-normal">
<path id="Vector" d="M7.91665 14.5C4.14998 14.5 1.08331 11.4333 1.08331 7.66668C1.08331 3.90001 4.14998 0.833344 7.91665 0.833344C11.6833 0.833344 14.75 3.90001 14.75 7.66668C14.75 11.4333 11.6833 14.5 7.91665 14.5ZM7.91665 1.83334C4.69665 1.83334 2.08331 4.45334 2.08331 7.66668C2.08331 10.88 4.69665 13.5 7.91665 13.5C11.1366 13.5 13.75 10.88 13.75 7.66668C13.75 4.45334 11.1366 1.83334 7.91665 1.83334Z" fill="#292D32"/>
<path id="Vector_2" d="M14.9167 15.1667C14.79 15.1667 14.6634 15.12 14.5634 15.02L13.23 13.6867C13.0367 13.4933 13.0367 13.1733 13.23 12.98C13.4234 12.7867 13.7434 12.7867 13.9367 12.98L15.27 14.3133C15.4634 14.5067 15.4634 14.8267 15.27 15.02C15.17 15.12 15.0434 15.1667 14.9167 15.1667Z" fill="#292D32"/>
</g>
</g>
</svg>
