<svg width="10" height="10" viewBox="0 0 10 10" fill="none" xmlns="http://www.w3.org/2000/svg">
<g id="vuesax/outline/setting-2">
<g id="setting-2">
<path id="Vector" d="M5 6.5625C4.1375 6.5625 3.4375 5.8625 3.4375 5C3.4375 4.1375 4.1375 3.4375 5 3.4375C5.8625 3.4375 6.5625 4.1375 6.5625 5C6.5625 5.8625 5.8625 6.5625 5 6.5625ZM5 4.0625C4.48333 4.0625 4.0625 4.48333 4.0625 5C4.0625 5.51667 4.48333 5.9375 5 5.9375C5.51667 5.9375 5.9375 5.51667 5.9375 5C5.9375 4.48333 5.51667 4.0625 5 4.0625Z" fill="white"/>
<path id="Vector_2" d="M6.33749 9.24584C6.24999 9.24584 6.16249 9.23334 6.07499 9.21251C5.81666 9.14167 5.59999 8.97917 5.46249 8.75001L5.41249 8.66667C5.16666 8.24167 4.82916 8.24167 4.58333 8.66667L4.53749 8.74584C4.39999 8.97917 4.18333 9.14584 3.92499 9.21251C3.66249 9.28334 3.39166 9.24584 3.16249 9.10834L2.44583 8.69584C2.19166 8.55001 2.00833 8.31251 1.92916 8.02501C1.85416 7.73751 1.89166 7.44167 2.03749 7.18751C2.15833 6.97501 2.19166 6.78334 2.12083 6.66251C2.04999 6.54167 1.87083 6.47084 1.62499 6.47084C1.01666 6.47084 0.520828 5.97501 0.520828 5.36667V4.63334C0.520828 4.02501 1.01666 3.52917 1.62499 3.52917C1.87083 3.52917 2.04999 3.45834 2.12083 3.33751C2.19166 3.21667 2.16249 3.02501 2.03749 2.81251C1.89166 2.55834 1.85416 2.25834 1.92916 1.97501C2.00416 1.68751 2.18749 1.45001 2.44583 1.30417L3.16666 0.891674C3.63749 0.612507 4.25833 0.775007 4.54166 1.25417L4.59166 1.33751C4.83749 1.76251 5.17499 1.76251 5.42083 1.33751L5.46666 1.25834C5.74999 0.775007 6.37083 0.612507 6.84583 0.895841L7.56249 1.30834C7.81666 1.45417 7.99999 1.69167 8.07916 1.97917C8.15416 2.26667 8.11666 2.56251 7.97083 2.81667C7.84999 3.02917 7.81666 3.22084 7.88749 3.34167C7.95833 3.46251 8.13749 3.53334 8.38333 3.53334C8.99166 3.53334 9.48749 4.02917 9.48749 4.63751V5.37084C9.48749 5.97917 8.99166 6.47501 8.38333 6.47501C8.13749 6.47501 7.95833 6.54584 7.88749 6.66667C7.81666 6.78751 7.84583 6.97917 7.97083 7.19167C8.11666 7.44584 8.15833 7.74584 8.07916 8.02917C8.00416 8.31667 7.82083 8.55417 7.56249 8.70001L6.84166 9.11251C6.68333 9.20001 6.51249 9.24584 6.33749 9.24584ZM4.99999 7.70417C5.37083 7.70417 5.71666 7.93751 5.95416 8.35001L5.99999 8.42917C6.04999 8.51667 6.13333 8.57917 6.23333 8.60417C6.33333 8.62917 6.43333 8.61667 6.51666 8.56667L7.23749 8.15001C7.34583 8.08751 7.42916 7.98334 7.46249 7.85834C7.49583 7.73334 7.47916 7.60417 7.41666 7.49584C7.17916 7.08751 7.14999 6.66667 7.33333 6.34584C7.51666 6.02501 7.89583 5.84167 8.37083 5.84167C8.63749 5.84167 8.84999 5.62917 8.84999 5.36251V4.62917C8.84999 4.36667 8.63749 4.15001 8.37083 4.15001C7.89583 4.15001 7.51666 3.96667 7.33333 3.64584C7.14999 3.32501 7.17916 2.90417 7.41666 2.49584C7.47916 2.38751 7.49583 2.25834 7.46249 2.13334C7.42916 2.00834 7.34999 1.90834 7.24166 1.84167L6.52083 1.42917C6.34166 1.32084 6.10416 1.38334 5.99583 1.56667L5.94999 1.64584C5.71249 2.05834 5.36666 2.29167 4.99583 2.29167C4.62499 2.29167 4.27916 2.05834 4.04166 1.64584L3.99583 1.56251C3.89166 1.38751 3.65833 1.32501 3.47916 1.42917L2.75833 1.84584C2.64999 1.90834 2.56666 2.01251 2.53333 2.13751C2.49999 2.26251 2.51666 2.39167 2.57916 2.50001C2.81666 2.90834 2.84583 3.32917 2.66249 3.65001C2.47916 3.97084 2.09999 4.15417 1.62499 4.15417C1.35833 4.15417 1.14583 4.36667 1.14583 4.63334V5.36667C1.14583 5.62917 1.35833 5.84584 1.62499 5.84584C2.09999 5.84584 2.47916 6.02917 2.66249 6.35001C2.84583 6.67084 2.81666 7.09167 2.57916 7.50001C2.51666 7.60834 2.49999 7.73751 2.53333 7.86251C2.56666 7.98751 2.64583 8.08751 2.75416 8.15417L3.47499 8.56667C3.56249 8.62084 3.66666 8.63334 3.76249 8.60834C3.86249 8.58334 3.94583 8.51667 3.99999 8.42917L4.04583 8.35001C4.28333 7.94167 4.62916 7.70417 4.99999 7.70417Z" fill="white"/>
</g>
</g>
</svg>
