<svg width="23" height="23" viewBox="0 0 23 23" fill="none" xmlns="http://www.w3.org/2000/svg">
<g id="vuesax/bold/setting-2">
<g id="setting-2">
<path id="Vector" d="M18.9656 8.76875C17.3253 8.76875 16.6547 7.56875 17.4703 6.09688C17.9416 5.24375 17.6606 4.15625 16.8359 3.66875L15.2681 2.74063C14.5522 2.3 13.6278 2.5625 13.2019 3.30313L13.1022 3.48125C12.2866 4.95313 10.9453 4.95313 10.1206 3.48125L10.0209 3.30313C9.61312 2.5625 8.68875 2.3 7.97281 2.74063L6.405 3.66875C5.58031 4.15625 5.29938 5.25313 5.77063 6.10625C6.59531 7.56875 5.92469 8.76875 4.28438 8.76875C3.34188 8.76875 2.5625 9.56563 2.5625 10.55V12.2C2.5625 13.175 3.33281 13.9813 4.28438 13.9813C5.92469 13.9813 6.59531 15.1813 5.77063 16.6531C5.29938 17.5063 5.58031 18.5938 6.405 19.0813L7.97281 20.0094C8.68875 20.45 9.61313 20.1875 10.0391 19.4469L10.1388 19.2688C10.9544 17.7969 12.2956 17.7969 13.1203 19.2688L13.22 19.4469C13.6459 20.1875 14.5703 20.45 15.2863 20.0094L16.8541 19.0813C17.6788 18.5938 17.9597 17.4969 17.4884 16.6531C16.6638 15.1813 17.3344 13.9813 18.9747 13.9813C19.9172 13.9813 20.6966 13.1844 20.6966 12.2V10.55C20.6875 9.575 19.9172 8.76875 18.9656 8.76875ZM11.625 14.4219C10.0028 14.4219 8.67969 13.0531 8.67969 11.375C8.67969 9.69688 10.0028 8.32813 11.625 8.32813C13.2472 8.32813 14.5703 9.69688 14.5703 11.375C14.5703 13.0531 13.2472 14.4219 11.625 14.4219Z" fill="#292D32"/>
</g>
</g>
</svg>
